<svg width="20" height="20" viewBox="0 0 20 20" fill="none" xmlns="http://www.w3.org/2000/svg">
<path fill-rule="evenodd" clip-rule="evenodd" d="M13.5114 3.52475C12.5339 3.64845 11.4821 4.25644 10.6381 5.62285C10.5014 5.84405 10.26 5.97871 10 5.97871C9.74001 5.97871 9.49856 5.84406 9.36192 5.62286C8.51788 4.25648 7.46611 3.64849 6.48858 3.52478C5.49958 3.39963 4.48262 3.756 3.68466 4.51791C2.10476 6.04041 2.10511 8.60645 3.68571 10.1285L10 16.2089L16.3143 10.1285C17.8949 8.60645 17.8952 6.04043 16.3154 4.51792C15.5174 3.756 14.5004 3.3996 13.5114 3.52475ZM13.3231 2.03662C14.8073 1.84881 16.2635 2.3937 17.3526 3.43439L17.3548 3.43641C19.5484 5.54882 19.5484 9.09657 17.3548 11.209L10.5202 17.7903C10.2298 18.07 9.77021 18.07 9.47977 17.7903L2.64525 11.209C0.451585 9.09657 0.451585 5.54882 2.64525 3.43641L2.64735 3.43439L2.64735 3.43439C3.73653 2.3937 5.19273 1.84883 6.6769 2.03665C7.88681 2.18976 9.04816 2.82055 9.99999 3.94957C10.9518 2.82052 12.1132 2.18972 13.3231 2.03662Z" fill="#47586E"/>
</svg>
