<svg width="20" height="20" viewBox="0 0 20 20" fill="none" xmlns="http://www.w3.org/2000/svg">
<path fill-rule="evenodd" clip-rule="evenodd" d="M10.0928 2.52324C9.99905 2.47488 9.86181 2.50026 9.79335 2.64522L8.00799 6.42557C7.76215 6.94613 7.27807 7.32297 6.69953 7.41082L2.70736 8.01703C2.66367 8.02366 2.61758 8.04593 2.57857 8.08775C2.47149 8.20255 2.47467 8.39827 2.58316 8.50878L5.47192 11.4514C5.87611 11.8631 6.05323 12.4463 5.96057 13.0109L5.27863 17.1659C5.2674 17.2343 5.27853 17.3035 5.30766 17.3614C5.3787 17.5027 5.51526 17.5255 5.60897 17.474L9.17967 15.5123C9.69201 15.2308 10.3079 15.2308 10.8202 15.5123L14.3909 17.474C14.434 17.4977 14.48 17.5045 14.5234 17.4967C14.5864 17.4854 14.6553 17.4449 14.7056 17.3752C14.754 17.3081 14.7706 17.2347 14.7603 17.1681L14.0393 13.0109C13.9466 12.4463 14.1238 11.8631 14.5279 11.4514L17.4167 8.50878C17.4568 8.46792 17.4872 8.40957 17.4968 8.34084C17.5227 8.15465 17.3972 8.03293 17.2925 8.01703L13.3003 7.41082C12.7218 7.32297 12.2377 6.94613 11.9919 6.42557L10.2065 2.64522C10.1788 2.58657 10.1367 2.54586 10.0928 2.52324ZM8.437 2.00466C8.85086 1.12835 9.89685 0.734429 10.7804 1.1901C11.1257 1.36818 11.3985 1.65664 11.5629 2.00466L13.3482 5.78501C13.3898 5.87307 13.4613 5.91807 13.5255 5.92782L17.5177 6.53403C18.4915 6.6819 19.1133 7.60658 18.9825 8.54743C18.9296 8.92748 18.7578 9.28392 18.4871 9.5596L15.5984 12.5022C15.5379 12.5637 15.5029 12.662 15.5191 12.7656L16.2401 16.9229C16.4008 17.902 15.7151 18.807 14.788 18.9732C14.4037 19.042 14.0097 18.976 13.6686 18.7887L10.0979 16.8269C10.0354 16.7926 9.96447 16.7926 9.90194 16.8269L6.33123 18.7887C5.46031 19.2671 4.40376 18.9024 3.96767 18.0356C3.79485 17.692 3.7363 17.3015 3.79843 16.9229L4.48038 12.7679C4.49751 12.6635 4.4624 12.5642 4.40151 12.5022L1.51275 9.5596C0.840839 8.87517 0.828048 7.76534 1.48168 7.0646C1.74558 6.78168 2.09641 6.59261 2.48217 6.53403L6.47434 5.92782C6.53853 5.91807 6.61006 5.87307 6.65165 5.78501L8.437 2.00466Z" fill="#47586E"/>
</svg>
