<svg width="1512" height="1719" viewBox="0 0 1512 1719" fill="none" xmlns="http://www.w3.org/2000/svg">
<path d="M1537.48 11.6627C1336.93 51.2231 1175.37 189.4 1104.9 381.339L982.495 731.139L1357.99 657.069L921.307 1718.49L1111.24 1682.03L1620.54 441.272L1226.46 519.007L1254.47 440.741L1255.58 437.828C1306.23 298.517 1423.29 198.195 1568.62 169.526C1795.32 124.808 2016.26 272.846 2061 499.647C2105.74 726.447 1957.67 947.276 1730.86 992.016C1667.33 1004.55 1603.72 1002.5 1541.73 985.881L1500.11 1141.37C1586.04 1164.39 1674.16 1167.21 1762 1149.88C2075.8 1087.98 2280.77 782.288 2218.87 468.506C2156.97 154.723 1851.27 -50.2357 1537.48 11.6627Z" fill="url(#paint0_linear_2040_4729)" fill-opacity="0.05" style="mix-blend-mode:multiply"/>
<path d="M1062.16 819.149L681.265 894.284C622.303 834.969 582.821 760.585 566.367 677.169C520.925 446.803 671.334 222.481 901.707 177.038C964.055 164.739 1027.49 166.483 1088.23 181.892C1116.15 142.482 1155.25 94.2459 1204.18 50.9171C1098.39 8.02372 983.053 -3.01444 870.567 19.1744C642.03 64.2554 470.59 237.159 415.815 448.902C380.371 448.485 344.873 451.783 309.647 458.732C30.1085 513.873 -152.481 786.19 -97.3415 1065.72C-42.2016 1345.25 230.121 1527.83 509.876 1472.65L883.771 1397.88L1062.18 819.257L1062.16 819.149ZM478.498 1314.72C286.052 1352.68 98.4878 1227.02 60.5059 1034.47C22.524 841.923 148.212 654.47 340.766 616.487C359.676 612.757 378.56 610.604 397.504 609.897C398.412 642.385 401.976 675.247 408.477 708.202C434.139 838.297 503.916 956.995 604.843 1042.38L634.368 1067.43L816.765 1031.45L736.796 1262.87L478.369 1314.63L478.498 1314.72Z" fill="url(#paint1_linear_2040_4729)" fill-opacity="0.05" style="mix-blend-mode:multiply"/>
<defs>
<linearGradient id="paint0_linear_2040_4729" x1="61.4855" y1="597.184" x2="1863.52" y2="1316.31" gradientUnits="userSpaceOnUse">
<stop stop-color="#761D74"/>
<stop offset="1" stop-color="#0DC6DE"/>
</linearGradient>
<linearGradient id="paint1_linear_2040_4729" x1="61.4855" y1="597.184" x2="1863.52" y2="1316.31" gradientUnits="userSpaceOnUse">
<stop stop-color="#761D74"/>
<stop offset="1" stop-color="#0DC6DE"/>
</linearGradient>
</defs>
</svg>
