<svg width="180" height="140" viewBox="0 0 180 140" fill="none" xmlns="http://www.w3.org/2000/svg">
<g clip-path="url(#clip0_3065_3551)">
<path d="M146.992 65.2757C146.04 70.6624 133.835 72.6872 131.097 77.1523C128.241 81.838 133.352 92.0141 129.062 95.6355C124.668 99.3217 113.532 93.987 108.134 96.0508C102.774 98.1146 99.5536 109.108 93.451 109.472C87.5571 109.809 82.7585 99.3347 76.9428 97.842C71.1271 96.3753 60.8649 102.93 56.0924 99.8539C51.2025 96.6739 54.9058 85.9266 51.5024 81.6822C48.0991 77.4378 35.6853 76.7629 34.0423 71.6488C32.4645 66.6516 42.3486 60.4083 42.3877 55.0996C42.4268 50.0375 33.1165 42.7818 35.0333 37.7716C36.9241 32.8133 48.4902 33.2027 51.5415 29.1011C54.6841 24.8956 51.4372 14.0575 55.5838 11.0981C59.7044 8.12573 68.8191 14.6286 73.6959 12.8634C78.5076 11.1111 81.5849 0.272958 86.6182 0.000381986C91.469 -0.272194 95.6286 10.1246 100.779 11.3577C105.943 12.6038 114.249 5.17932 118.526 7.6325C123.025 10.1765 120.965 21.3132 124.472 25.0644C128.045 28.8934 139.416 27.2709 141.789 31.8528C144.188 36.4347 135.934 44.6249 136.625 49.8168C137.29 54.8919 147.905 59.954 146.979 65.2628L146.992 65.2757Z" fill="#580058"/>
<path d="M134.396 140C124.733 126.839 115.201 114.352 113.271 112.976C108.199 109.355 105.122 103.41 105.122 97.193V81.0592H75.3389V97.193C75.3389 104.371 71.2314 111.107 64.8289 114.417C60.565 116.624 52.4413 127.955 44.7087 140H134.396Z" fill="#FC9986"/>
<path d="M75.3389 81.0592V97.193C75.3389 101.957 73.6046 106.318 70.7359 109.706C73.9176 110.51 77.3992 110.952 81.2068 110.952C91.7428 110.952 99.7492 107.642 105.852 102.45C105.382 100.775 105.108 99.0232 105.108 97.206V81.0721H75.3259L75.3389 81.0592Z" fill="#FB785E"/>
<path d="M117.001 74.2707L61.4517 75.1274C56.94 75.1274 54.1103 60.6679 58.609 60.6679H120.73C125.242 60.6679 121.499 74.2837 116.988 74.2837L117.001 74.2707Z" fill="#FF8061"/>
<path d="M118.696 47.1819C116.323 9.52754 63.2903 12.461 60.4867 44.9753C60.0173 50.362 60.3824 61.8231 60.7997 67.1838C61.217 72.5444 62.1819 77.8402 64.2943 82.9283C69.132 94.5711 80.294 103.125 93.1511 101.373C109.19 99.1919 115.214 85.7449 117.444 71.3762C118.526 64.3931 119.087 53.3733 118.696 47.156V47.1819Z" fill="#FFA28B"/>
<path d="M100.179 17.0688C80.9069 12.6816 57.605 25.5186 54.4885 45.4426C54.006 48.5708 52.4413 66.5218 60.565 60.9145C64.516 58.1888 72.5745 35.3703 80.1114 44.9494C94.5203 63.2769 114.523 54.5155 114.523 54.5155C114.523 54.5155 117.731 66.4699 123.09 63.6403C126.859 61.6544 128.137 23.4419 100.179 17.0818V17.0688Z" fill="#580058"/>
<path d="M81.7023 67.3525C81.7023 69.2086 80.7373 70.7273 79.5377 70.7273C78.338 70.7273 77.3731 69.2216 77.3731 67.3525C77.3731 65.4834 78.338 63.9778 79.5377 63.9778C80.7373 63.9778 81.7023 65.4834 81.7023 67.3525Z" fill="#580058"/>
<path d="M101.731 67.3525C101.731 69.2086 100.766 70.7273 99.5666 70.7273C98.367 70.7273 97.402 69.2216 97.402 67.3525C97.402 65.4834 98.367 63.9778 99.5666 63.9778C100.766 63.9778 101.731 65.4834 101.731 67.3525Z" fill="#580058"/>
<path d="M89.1088 65.6522C88.8871 68.2092 88.4829 70.7143 87.8048 73.1934C87.4006 74.6731 86.1879 76.633 86.3966 78.2166C86.6834 80.527 90.4258 80.1895 92.0166 80.3842C92.9164 80.4881 92.9033 79.0862 92.0166 78.9824C90.5953 78.8137 88.4177 79.0473 88.0396 77.0484C87.87 76.1788 89.0566 73.9722 89.2914 73.0506C89.9173 70.6104 90.2954 68.1443 90.504 65.6392C90.5823 64.7436 89.174 64.7436 89.0958 65.6392L89.1088 65.6522Z" fill="#FF8061"/>
<path d="M81.6762 83.7979C86.3705 86.8611 93.112 86.5756 97.6107 83.2917C98.3278 82.7595 97.6367 81.5524 96.9065 82.0846C92.786 85.1089 86.7095 85.4204 82.3934 82.5908C81.6371 82.0976 80.9329 83.3047 81.6892 83.7979H81.6762Z" fill="#FF8061"/>
<path d="M76.2256 60.1228C77.7643 58.8378 79.7594 58.4873 81.6501 59.0844C82.5107 59.357 82.8889 58.0071 82.0283 57.7345C79.629 56.9817 77.1384 57.5268 75.2346 59.1233C74.5435 59.7074 75.5345 60.6939 76.2256 60.1098V60.1228Z" fill="#580058"/>
<path d="M103.87 59.1363C101.953 57.5398 99.4623 56.9946 97.076 57.7475C96.2154 58.02 96.5805 59.3699 97.4542 59.0974C99.358 58.5003 101.353 58.8378 102.879 60.1357C103.57 60.7069 104.561 59.7334 103.87 59.1493V59.1363Z" fill="#580058"/>
<path d="M89.5522 26.2325C105.604 26.2325 118.813 38.148 120.456 53.4252C120.587 51.7508 120.626 50.3749 120.626 49.3885C120.626 32.5926 106.712 18.9768 89.5522 18.9768C72.392 18.9768 58.4786 32.5926 58.4786 49.3885C58.4786 50.3749 58.5308 51.7378 58.6612 53.3992C60.3172 38.122 73.5134 26.2325 89.5652 26.2325H89.5522Z" fill="#FF4987"/>
<path d="M149 140C143.549 116.364 112.033 109.615 112.033 109.615L89.6043 131.239L67.15 109.212C67.15 109.212 35.4636 116.299 30 140H149Z" fill="#580058"/>
</g>
<defs>
<clipPath id="clip0_3065_3551">
<rect width="119" height="140" fill="white" transform="translate(30)"/>
</clipPath>
</defs>
</svg>
