<svg width="70" height="69" viewBox="0 0 70 69" fill="none" xmlns="http://www.w3.org/2000/svg">
<path d="M16.8559 10.0071L36.5304 17.6039V21.5753C36.5304 21.5753 41.048 21.3643 41.048 25.0614C41.048 28.7585 36.9809 29.1384 36.9809 29.1384C36.9809 29.1384 34.6527 38.5837 26.1016 38.5837C17.5506 38.5837 15.0454 30.5691 15.0454 29.1763C15.0454 29.1763 10.8731 28.8978 10.8731 25.551C10.8731 22.2042 14.9065 21.5078 14.9065 21.5078V17.8825L20.4009 11.957M32.4296 36.4903V40.466M19.9841 36.8406V40.8121M39.4524 43.3907C39.4524 43.3907 37.5072 42.3441 35.0737 43.4625C32.6401 44.5809 30.695 45.6234 26.3837 45.6234C22.0724 45.6234 19.2936 44.2981 17.3443 43.6735C15.3949 43.0489 13.7276 42.4876 10.1152 44.0238C6.50282 45.56 1.6989 50.7807 1.6989 55.0307V62.0704M15.6054 43.3232V60.5383M40.6354 22.9723C40.6354 22.9723 42.1638 21.1617 42.0964 16.2829C42.029 11.4041 38.6903 6.17922 35.2842 3.73981C31.8781 1.3004 24.5775 -0.860457 16.7885 3.52879C8.99951 7.91804 9.28159 18.5113 11.1552 23.7404M42.6522 44.2306L52.7315 39.0732L63.0214 44.1589M69 66.5314C69 66.5314 65.8718 64.3705 63.0214 64.4423C60.1711 64.514 55.2324 67.8566 52.2431 67.9959C49.2539 68.1351 44.8036 64.6491 41.187 64.5815C37.5704 64.514 33.1917 67.8566 29.6466 67.9959C26.1016 68.1351 23.5291 64.7208 18.801 64.5815C14.0729 64.4423 12.1277 67.5105 7.32803 67.7173C2.52833 67.9241 1 66.1135 1 66.1135M38.5472 60.6776C38.5472 60.6776 37.3641 59.0063 37.3641 56.7737V49.4555C37.3641 49.4555 38.1977 47.5732 39.726 49.177C41.2544 50.7807 43.6205 54.3343 43.6205 54.3343H62.4615L66.217 49.5948C66.217 49.5948 68.5116 47.7125 68.5116 49.7341V56.8413C68.5116 56.8413 67.7453 60.4666 66.7054 61.509M45.3636 58.3775V60.8844M52.8031 58.1665V61.5808M60.1711 58.0989V61.374M60.449 46.8093V54.0558M45.0857 47.4339V54.0558M50.0917 47.0878V49.3162M55.5145 46.6658V49.177M44.391 24.5761L49.9528 27.6401L52.8031 34.262L55.7924 27.6401L61.2152 24.5043L55.7924 21.5796L52.8705 14.9577L50.4369 21.1575L44.391 24.5761Z" stroke="#CDFDF3" stroke-width="1.78" stroke-linecap="round" stroke-linejoin="round"/>
</svg>
