<svg width="66" height="67" viewBox="0 0 66 67" fill="none" xmlns="http://www.w3.org/2000/svg">
<path d="M24.5015 15.2506L43.2874 22.5544V26.3727C43.2874 26.3727 47.601 26.1698 47.601 29.7243C47.601 33.2789 43.7176 33.6441 43.7176 33.6441C43.7176 33.6441 41.4945 42.7251 33.3296 42.7251C25.1648 42.7251 22.7729 35.0196 22.7729 33.6806C22.7729 33.6806 18.7889 33.4128 18.7889 30.195C18.7889 26.9773 22.6402 26.3078 22.6402 26.3078V22.8222L27.8864 17.1252M39.3719 40.7125V44.5349M27.4884 41.0493V44.8676M21.3819 11.7894C21.3819 11.7894 15.3397 17.6852 19.2593 28.4746M44.5497 11.3877C44.5497 11.3877 51.1226 18.022 47.3397 28.0039M56.3005 65.2615V59.4996C56.3005 59.4996 56.2322 53.6687 51.5889 49.9194C46.9457 46.1701 43.6894 46.3 41.2332 47.3712C38.7769 48.4424 36.3849 49.7165 33.0683 49.7165C29.7518 49.7165 27.0945 48.5114 25.4985 47.8419C23.9025 47.1724 22.7769 46.235 19.4563 47.3063C16.1357 48.3775 9.83216 52.6665 9.83216 59.2318V66M33.1327 49.9154V57.9577M44.6181 41.4064L51.2553 34.906C51.2553 34.906 52.5176 33.2991 54.1779 33.1652C55.8382 33.0313 62.5437 33.1652 62.5437 33.1652C62.5437 33.1652 65 33.567 65 35.9123C65 38.2576 63.7377 39.8645 61.8121 40.1323H57.1648M55.6372 46.7666H59.0221C59.0221 46.7666 62.7407 46.8356 63.006 43.5488C63.2714 40.2621 60.0191 40.0633 60.0191 40.0633M54.6402 53.198H56.3005C56.3005 53.198 59.7538 52.5285 59.9508 50.382C60.1477 48.2355 58.8211 46.8964 57.6271 46.7625M21.3819 41.4064L14.7447 34.906C14.7447 34.906 13.4824 33.2991 11.8221 33.1652C10.1618 33.0313 3.45628 33.1652 3.45628 33.1652C3.45628 33.1652 1 33.567 1 35.9123C1 38.2576 2.26231 39.8645 4.18794 40.1323H8.83518M10.3588 46.7666H6.97387C6.97387 46.7666 3.25528 46.8356 2.98995 43.5488C2.72462 40.2621 5.97688 40.0633 5.97688 40.0633M11.3558 53.198H9.69548C9.69548 53.198 6.24221 52.5285 6.04523 50.382C5.84824 48.2355 7.17487 46.8964 8.36884 46.7625M47.7136 5.47562C47.7136 7.94744 40.9083 9.95125 32.5136 9.95125C24.1188 9.95125 17.3136 7.94744 17.3136 5.47562C17.3136 3.0038 24.1188 1 32.5136 1C40.9083 1 47.7136 3.0038 47.7136 5.47562Z" stroke="#CDFDF3" stroke-width="1.78" stroke-linecap="round" stroke-linejoin="round"/>
</svg>
