<svg width="68" height="69" viewBox="0 0 68 69" fill="none" xmlns="http://www.w3.org/2000/svg">
<path d="M15.6027 9.97942L35.0994 17.5528V21.512C35.0994 21.512 39.5761 21.3016 39.5761 24.9874C39.5761 28.6731 35.5458 29.0517 35.5458 29.0517C35.5458 29.0517 33.2386 38.468 24.7648 38.468C16.2911 38.468 13.8086 30.4781 13.8086 29.0896C13.8086 29.0896 9.674 28.8119 9.674 25.4754C9.674 22.1389 13.671 21.4447 13.671 21.4447V17.8305L19.1157 11.9233M31.0357 36.3811V40.3445M18.7026 36.7303V40.6895M39.1673 22.9047C39.1673 22.9047 40.6818 21.0997 40.615 16.2359C40.5483 11.3721 37.2397 6.16328 33.8644 3.73138C30.4891 1.29948 23.2545 -0.85473 15.5359 3.52101C7.81737 7.89674 8.09691 18.4574 9.95354 23.6704M31.1733 44.5141C31.1733 44.5141 28.5532 45.9741 24.5604 45.9741C20.5676 45.9741 17.4635 44.5141 16.0867 43.681C14.7098 42.8479 13.6751 42.5702 10.7129 43.4033C7.75062 44.2364 1 49.239 1 55.0747V68M24.9735 46.1087V54.8644M46.8149 57.5066V55.2136C46.8149 55.2136 42.5426 52.6428 42.5426 48.0567C42.5426 43.4706 45.4381 39.928 50.6742 39.928C55.9103 39.928 58.3928 44.7202 58.3928 47.8506C58.3928 50.9809 56.4652 54.1028 54.329 55.0747V57.0901M60.9378 58.2009L62.9363 59.3832L66.9332 53.4759L63.6247 50.9767C63.6247 50.9767 64.1754 48.0567 63.5538 45.141L67 42.4987L63.2116 36.4526L59.7654 38.1903C59.7654 38.1903 56.9408 35.8299 54.5293 34.8538V30.5454H47.0903V34.715C47.0903 34.715 43.4396 35.8257 41.5079 38.1188L38.0616 36.1034L33.8602 42.566L37.3732 44.8591C37.3732 44.8591 36.6139 48.3344 37.3732 50.9052L33.9979 53.4759L37.5109 59.3832L40.5441 57.9232M47.2947 63.7589V66.6073C47.2947 66.6073 47.3656 67.8569 48.7425 67.8569H52.8062C52.8062 67.8569 53.9076 67.4404 53.9076 66.6073V63.8977M46.0097 57.6455H55.3345C56.2608 57.6455 57.0118 58.4028 57.0118 59.3369V62.0675C57.0118 63.0016 56.2608 63.7589 55.3345 63.7589H46.0097C45.0834 63.7589 44.3324 63.0016 44.3324 62.0675V59.3369C44.3324 58.4028 45.0834 57.6455 46.0097 57.6455Z" stroke="#CDFDF3" stroke-width="1.78" stroke-linecap="round" stroke-linejoin="round"/>
</svg>
