<svg width="66" height="67" viewBox="0 0 66 67" fill="none" xmlns="http://www.w3.org/2000/svg">
<g clip-path="url(#clip0_2190_9845)">
<path d="M52.4387 59.13L52.8235 55.7767L62.9385 45.9272C62.9385 45.9272 65.4438 43.8292 65.2215 40.7286C64.9992 37.628 64.127 18.3588 64.127 18.3588C64.127 18.3588 63.956 14.0281 60.2965 14.264C57.586 14.4325 56.9875 17.4657 57.0388 18.957C57.0901 20.4483 57.4578 35.8587 56.7566 37.3247C56.4061 38.0493 49.087 44.4864 49.087 44.4864M54.7815 39.1699C54.7815 39.1699 56.654 37.013 54.9782 34.9993C53.2938 32.9856 50.361 35.0414 48.0866 36.8192C45.8122 38.597 40.4084 43.4754 39.998 43.9978C39.5876 44.5201 39.1173 45.4132 39.1515 48.8509C39.1772 52.2885 39.3225 59.1132 39.3225 59.1132M13.5604 59.13L13.1756 55.7767L3.06058 45.9272C3.06058 45.9272 0.555329 43.8292 0.777638 40.7286C1.0085 37.628 1.87208 18.3588 1.87208 18.3588C1.87208 18.3588 2.04309 14.0281 5.70263 14.264C8.41308 14.4325 9.0116 17.4657 8.9603 18.957C8.909 20.4483 8.54134 35.8587 9.24246 37.3247C9.59303 38.0493 16.9121 44.4864 16.9121 44.4864M11.2176 39.1699C11.2176 39.1699 9.34507 37.013 11.0209 34.9993C12.6968 32.9856 15.6381 35.0414 17.9125 36.8192C20.1869 38.597 25.5907 43.4754 26.0011 43.9978C26.4115 44.5201 26.8818 45.4132 26.8476 48.8509C26.8219 52.2885 26.6766 59.1132 26.6766 59.1132M33.0038 4.42293V0.757812M25.3085 6.23442L22.9657 3.39501M40.4084 6.04063L43.0334 3.45399M46.7955 12.3261L49.7539 10.1186M18.9813 12.3935L16.2452 9.91639M35.0132 63.6124V61.8094C35.0132 60.3529 36.2114 59.1722 37.6894 59.1722H53.9692C55.4473 59.1722 56.6455 60.3529 56.6455 61.8094V63.6124C56.6455 65.0689 55.4473 66.2496 53.9692 66.2496H37.6894C36.2114 66.2496 35.0132 65.0689 35.0132 63.6124ZM9.35362 63.604V61.801C9.35362 60.3445 10.5518 59.1638 12.0299 59.1638H28.3097C29.7878 59.1638 30.986 60.3445 30.986 61.801V63.604C30.986 65.0605 29.7878 66.2412 28.3097 66.2412H12.0299C10.5518 66.2412 9.35362 65.0605 9.35362 63.604ZM42.8111 22.7485C42.8111 28.0858 38.4202 32.4126 33.0038 32.4126C27.5874 32.4126 23.1966 28.0858 23.1966 22.7485C23.1966 17.4112 27.5874 13.0844 33.0038 13.0844C38.4202 13.0844 42.8111 17.4112 42.8111 22.7485ZM47.3342 18.9233L45.0256 18.2408C44.7776 17.6005 44.4784 16.977 44.1278 16.3788L45.0512 14.1881C43.8371 12.5283 42.2638 11.1044 40.3999 10.0512L38.2794 11.1802C37.963 11.037 37.6381 10.9106 37.3132 10.7926C36.9883 10.6747 36.6463 10.582 36.3128 10.4893L35.3894 8.29868C33.2603 7.95324 31.1313 8.07962 29.1305 8.61885L28.438 10.8938C27.7881 11.1381 27.1554 11.433 26.5483 11.7784L24.3252 10.8685C22.6408 12.0649 21.1958 13.6152 20.127 15.452L21.2728 17.5415C21.1274 17.8533 20.9992 18.1734 20.8795 18.4936C20.7598 18.8138 20.6657 19.1508 20.5717 19.4794L18.3486 20.3894C17.998 22.4873 18.1263 24.5853 18.6735 26.5569L20.9821 27.2393C21.23 27.8797 21.5293 28.5032 21.8799 29.1014L20.9564 31.292C22.1706 32.9519 23.7438 34.3758 25.6078 35.429L27.7283 34.2999C28.0446 34.4432 28.3696 34.5696 28.6945 34.6875C29.0194 34.8055 29.3614 34.8982 29.6949 34.9908L30.6183 37.1815C32.7473 37.5269 34.8764 37.4005 36.8771 36.8613L37.5697 34.5864C38.2195 34.3421 38.8523 34.0472 39.4593 33.7017L41.6824 34.6117C43.3668 33.4153 44.8118 31.865 45.8806 30.0282L44.7349 27.9386C44.8802 27.6269 45.0085 27.3067 45.1282 26.9866C45.2479 26.6664 45.342 26.3294 45.436 26.0008L47.6591 25.0908C48.0097 22.9928 47.8814 20.8949 47.3342 18.9233ZM38.1939 22.6727C38.5615 22.1756 38.7924 21.5689 38.7924 20.9033C38.7924 19.2435 37.4244 17.8954 35.7399 17.8954C34.4916 17.8954 33.4313 18.6368 32.9525 19.69C32.4737 18.6368 31.4135 17.8954 30.1651 17.8954C28.4807 17.8954 27.1127 19.2435 27.1127 20.9033C27.1127 21.4594 27.2751 21.9734 27.5402 22.4199L27.5145 22.4452L31.251 27.2225H31.2767C31.6785 27.7027 32.2771 28.0145 32.9525 28.0145C33.7306 28.0145 34.4146 27.6016 34.7994 26.995L38.2024 22.6895L38.1939 22.6727Z" stroke="#CDFDF3" stroke-width="1.8" stroke-linecap="round" stroke-linejoin="round"/>
<path d="M39.1261 64.0172C39.8391 64.0172 40.4172 63.4476 40.4172 62.7449C40.4172 62.0423 39.8391 61.4727 39.1261 61.4727C38.413 61.4727 37.835 62.0423 37.835 62.7449C37.835 63.4476 38.413 64.0172 39.1261 64.0172Z" fill="#CDFDF3"/>
<path d="M26.8741 64.0172C27.5872 64.0172 28.1652 63.4476 28.1652 62.7449C28.1652 62.0423 27.5872 61.4727 26.8741 61.4727C26.1611 61.4727 25.583 62.0423 25.583 62.7449C25.583 63.4476 26.1611 64.0172 26.8741 64.0172Z" fill="#CDFDF3"/>
</g>
<defs>
<clipPath id="clip0_2190_9845">
<rect width="66" height="67" fill="white"/>
</clipPath>
</defs>
</svg>
