<svg width="66" height="67" viewBox="0 0 66 67" fill="none" xmlns="http://www.w3.org/2000/svg">
<path d="M38.1459 13.3907L42.0215 17.3187H6.27939V17.3146L10.2197 13.321C10.2197 3.23459 20.0422 1 20.0422 1H28.5257C38.0771 3.71021 38.1459 13.3907 38.1459 13.3907ZM38.1459 13.3907H10.2197M34.5373 17.5196V21.1072C34.5373 21.1072 38.6111 21.0375 38.6111 24.1537C38.6111 27.2698 36.4751 28.4875 34.6708 28.4875C34.6708 28.4875 33.0688 37.6268 24.3831 37.6268C15.6973 37.6268 13.893 29.1641 13.7595 28.2825C13.7595 28.2825 9.55221 28.2128 9.55221 24.8958C9.55221 21.5788 13.6625 20.73 13.6625 20.73V17.5811M8.14842 17.5196C8.14842 17.5196 8.6177 20.771 9.95272 23.0056M39.8126 17.454C39.8126 17.454 39.7439 20.0289 38.2106 22.3988M44.3558 27.4748V21.7182L49.9709 27.4051V21.3122M30.4635 35.7366V39.4596M18.3714 35.872V39.7958M34.7355 41.6245C34.7355 41.6245 29.4561 44.5356 24.5125 44.5356C19.5689 44.5356 16.2961 42.5716 15.2281 42.2354C14.1601 41.8992 9.41467 41.5589 5.47434 45.3515C1.53401 49.1442 1 52.2562 1 54.0849V66M24.5166 44.5356V53.2731M51.2372 40.4067L58.9884 36.8847L56.1161 44.7406M56.1161 52.4571L59.0531 60.1778L51.5729 57.1313M43.8905 40.1361L36.6733 37.02L39.4809 44.5356M39.9502 52.1865L36.6086 59.9071L43.9552 57.1969M47.4991 31.739L42.8225 43.2523L31.131 48.5989L42.422 53.2034L47.8996 65.5285L52.7745 53.679L65 48.8039L52.4427 43.5229L47.4991 31.739Z" stroke="#CDFDF3" stroke-width="1.78" stroke-linecap="round" stroke-linejoin="round"/>
</svg>
