<svg width="62" height="67" viewBox="0 0 62 67" fill="none" xmlns="http://www.w3.org/2000/svg">
<path d="M15.6728 9.63976L34.6747 16.9267V20.7361C34.6747 20.7361 39.0378 20.5337 39.0378 24.08C39.0378 27.6263 35.1098 27.9906 35.1098 27.9906C35.1098 27.9906 32.8611 37.0507 24.6024 37.0507C16.3437 37.0507 13.9243 29.363 13.9243 28.0271C13.9243 28.0271 9.89457 27.7599 9.89457 24.5496C9.89457 21.3393 13.7901 20.6713 13.7901 20.6713V17.1939L19.0966 11.5101M30.7141 35.0428V38.8562M18.6941 35.3788V39.1882M38.6393 22.0761C38.6393 22.0761 40.1154 20.3394 40.0504 15.6596C39.9812 10.9797 36.7607 5.96797 33.4711 3.62806C30.1814 1.28815 23.1304 -0.784572 15.6077 3.42565C8.08506 7.63586 8.35751 17.7971 10.167 22.8129M61 65.3968L54.0181 48.9527C54.0181 48.9527 50.5943 42.7345 44.8201 40.597C39.046 38.4595 34.8821 39.5283 34.8821 39.5283C34.8821 39.5283 34.0769 40.5322 35.2196 41.3338C36.3622 42.1354 38.9118 44.6089 39.046 48.1511C39.1802 51.6934 39.046 64.996 39.046 64.996M47.8373 55.1668L49.5167 65.1296M34.6747 41.0626C34.6747 41.0626 30.1082 44.0057 24.8708 44.0057C19.6334 44.0057 17.2831 41.7346 14.9327 41.5322C12.5824 41.3297 8.89019 41.265 4.65716 45.7424C0.424129 50.2198 1.03001 55.5716 1.03001 58.1787V66M20.7069 49.151V59.5146M28.7013 48.815V59.5146M20.776 54.2964H28.498" stroke="#CDFDF3" stroke-width="1.78" stroke-linecap="round" stroke-linejoin="round"/>
</svg>
