<svg width="62" height="61" viewBox="0 0 62 61" fill="none" xmlns="http://www.w3.org/2000/svg">
<g clip-path="url(#clip0_2190_9868)">
<path d="M50.7844 16.704V11.297L53.03 12.431C53.03 12.431 52.6217 7.65182 49.4983 4.91794C46.3749 2.18407 41.6897 2.32582 41.6897 2.32582L42.6084 0.412109H35.9532C35.9532 0.412109 32.1868 0.412109 30.5842 2.36633C30.5842 2.36633 22.1326 1.72842 20.2953 12.431L22.449 11.4792V16.6736M32.5134 7.46956C32.5134 7.46956 29.8493 9.24152 30.819 12.8462C31.7887 16.4509 36.2799 16.4914 38.1172 16.4914H50.519M33.7076 26.9206C33.7076 26.9206 35.1265 28.328 36.6882 28.328C38.2499 28.328 39.6687 26.7788 39.6687 26.7788M30.6761 12.1172C30.6761 12.1172 26.5421 12.7956 26.5421 16.4407V24.5512C26.5421 24.5512 26.7667 30.5658 32.6461 32.6111V34.4742L26.6748 35.5171M36.5963 11.4387C36.5963 11.4387 37.2394 16.4509 41.7408 16.4509M23.6535 19.4986C23.6535 19.4986 26.1747 20.9972 26.4094 22.4553M49.682 19.6303C49.682 19.6303 47.0179 21.22 46.7423 22.678M32.6461 34.4843L40.7302 42.4126L44.313 35.1627M28.8388 35.1627L32.5542 42.3113L40.7711 34.2919V32.52C46.4157 30.4746 46.7832 24.6829 46.7832 24.6829V16.3496C46.7832 13.0689 44.905 11.4792 44.905 11.4792M34.759 16.3091V22.1414C34.759 22.1414 34.7182 24.5107 32.2786 24.5107H24.2863C24.2863 24.5107 20.5709 24.1462 20.5709 20.4605C20.5709 16.7749 24.6844 16.38 24.6844 16.38H33.7995M38.648 16.5724V21.9692C38.648 21.9692 38.6786 24.45 40.5975 24.45H48.8144C48.8144 24.45 52.9075 24.045 52.9075 20.5415C52.9075 17.0381 49.8964 16.4812 49.4983 16.4812M47.7324 42.6353L41.3937 53.3886L37.6783 42.4328M37.6783 42.4328H35.6981L32.9931 50.5129M37.6783 42.4328L38.7705 40.8937M40.7813 34.3021L44.4355 35.0311C44.4355 35.0311 48.7327 35.345 50.4986 36.236C52.2645 37.1271 54.1936 39.3547 54.6734 41.5924C55.1531 43.8301 54.949 45.5312 53.4995 48.2651C52.0501 50.999 48.7021 57.2363 48.7021 57.2363C48.7021 57.2363 46.8648 60.5878 43.7618 60.5878H27.7874C27.7874 60.5878 26.5013 60.4764 26.5013 59.312V54.6239H40.8017L42.6798 56.487M28.7673 54.5935C28.7673 54.5935 26.5421 54.4821 26.5421 52.4064V36.1651C26.5421 36.1651 26.583 34.4539 25.2152 34.4539H7.50559C7.50559 34.4539 6.27051 34.5451 6.27051 35.8614V52.376C6.27051 52.376 6.52569 54.6036 8.65901 54.6036H27.4404M6.45424 50.5433H35.2898C35.2898 50.5433 36.78 50.5838 36.78 51.7482V54.5226M30.5638 54.6846V60.3549M18.4376 54.6644C18.4376 54.6644 18.1824 58.6234 21.1731 58.6234H26.338M35.6368 42.3417L34.5548 40.8229M18.4478 42.5746C18.4478 43.7154 17.5155 44.6402 16.3655 44.6402C15.2155 44.6402 14.2832 43.7154 14.2832 42.5746C14.2832 41.4338 15.2155 40.509 16.3655 40.509C17.5155 40.509 18.4478 41.4338 18.4478 42.5746Z" stroke="#CDFDF3" stroke-width="1.8" stroke-linecap="round" stroke-linejoin="round"/>
</g>
<defs>
<clipPath id="clip0_2190_9868">
<rect width="61" height="61" fill="white" transform="translate(0.5)"/>
</clipPath>
</defs>
</svg>
