<svg width="68" height="69" viewBox="0 0 68 69" fill="none" xmlns="http://www.w3.org/2000/svg">
<path d="M54.605 46.6922L66.0222 35.2936C66.0222 35.2936 68.3411 31.2748 65.8367 28.1938C63.3324 25.1129 59.4324 26.7934 57.7586 28.2872C56.0849 29.781 47.5472 39.8726 43.2763 41.8374C39.0054 43.8023 30.0925 45.5761 24.2447 41.5573C18.397 37.5385 12.271 30.6255 10.4117 28.754C8.55236 26.8825 5.86248 25.9489 3.07985 27.8204C0.29721 29.6919 0.575473 32.9595 2.33781 35.4845C4.10015 38.0096 18.4897 52.1157 18.4897 52.1157L18.5825 68M37.5255 4.64536C37.5255 4.64536 37.1545 1 33.8111 1C30.4677 1 29.9112 4.17855 29.9112 5.01881C29.9112 5.85907 30.5605 7.16614 32.3228 8.75754C34.0852 10.3489 33.6214 12.1228 33.6214 12.1228M37.4285 9.5978C37.4285 9.5978 45.7849 12.0252 47.64 19.7827C47.64 19.7827 52.3747 20.0628 52.5602 23.5215C52.7457 26.9801 49.5878 27.8204 47.9182 27.8204C47.9182 27.8204 44.1111 38.5655 34.4562 38.5655C24.8013 38.5655 20.4376 31.0923 19.3245 27.8204C19.3245 27.8204 14.8681 27.727 14.8681 24.2684C14.8681 20.8097 17.4694 19.9695 19.3245 19.9695C19.3245 19.9695 21.9259 12.1186 28.8867 9.78452M26.9641 27.4681C26.9641 27.4681 28.7729 32.4418 33.7858 32.4418C38.7988 32.4418 40.1226 27.3239 40.1226 27.3239M39.427 55.8502C39.427 55.8502 45.553 52.9772 46.1812 52.0648C46.8094 51.1524 49.3138 44.4261 49.3138 44.4261C49.3138 44.4261 51.4724 51.0845 52.3789 51.8526C53.2854 52.6207 58.7832 55.7059 58.7832 55.7059C58.7832 55.7059 53.5594 58.511 53.0029 59.2791C52.4463 60.0473 49.3812 66.99 49.3812 66.99C49.3812 66.99 46.8052 60.2637 45.9704 59.4913C45.1356 58.719 39.427 55.846 39.427 55.846V55.8502Z" stroke="#CDFDF3" stroke-width="1.78" stroke-linecap="round" stroke-linejoin="round"/>
</svg>
