<svg width="60" height="67" viewBox="0 0 60 67" fill="none" xmlns="http://www.w3.org/2000/svg">
<path d="M52.1449 11.4814C49.805 11.4814 47.9082 13.3792 47.9082 15.7203C47.9082 18.0614 49.805 19.9593 52.1449 19.9593C54.4848 19.9593 56.3817 18.0614 56.3817 15.7203C56.3817 13.3792 54.4848 11.4814 52.1449 11.4814ZM52.1449 11.4814C52.1449 11.4814 52.1895 6.84124 47.9082 3.4047C43.6269 -0.0318395 36.5831 0.681405 33.9949 2.64688C31.4067 4.61235 29.0007 7.77738 28.6888 9.07013M52.1449 44.5986V53.3278M46.3488 51.7675C46.3488 51.7675 43.8942 49.2671 39.6169 49.3603C35.3397 49.4535 34.5782 52.2174 28.6929 52.1728C22.8076 52.1282 21.0659 49.5386 18.0362 49.3158C15.0064 49.0929 10.4537 51.5001 8.22599 54.4463C5.99825 57.3924 5.32587 62.6121 5.41498 66M58.9699 34.9941C58.9699 34.9941 59.4155 31.7805 56.8759 30.3986C54.3362 29.0167 52.0153 31.7359 52.0153 31.7359V35.2616M46.6606 31.0227C46.6606 31.0227 47.4626 30.0419 48.7102 30.0865C49.9577 30.1311 51.4766 30.5323 52.0113 31.7359M28.6929 22.9014V9.07013C28.6929 9.07013 26.3315 1.97821 18.749 1.12718C11.1666 0.276152 6.03875 5.05408 5.41498 11.3031M8.53787 12.8633C8.53787 12.8633 10.1864 10.5452 12.5073 10.4075C14.8282 10.2697 15.7639 11.9677 15.7639 13.844V24.1942C15.7639 24.1942 16.0757 26.0664 17.9025 26.423M39.305 26.5162C39.305 26.5162 41.711 25.7584 41.7596 23.793C41.8082 21.8275 41.7596 14.2452 41.7596 14.2452C41.7596 14.2452 42.0269 10.7195 44.7488 10.4075C47.4707 10.0954 48.5846 12.8633 48.5846 12.8633M23.966 35.1279C23.966 35.1279 24.768 39.5451 28.6929 39.5451C32.6178 39.5451 33.4643 34.7712 33.4643 34.7712M22.9858 43.6463V47.484M34.8009 43.6909V47.172M28.6929 52.1687V65.5096M9.47353 15.7203C9.47353 18.0614 7.57666 19.9593 5.23676 19.9593C2.89686 19.9593 1 18.0614 1 15.7203C1 13.3792 2.89686 11.4814 5.23676 11.4814C7.57666 11.4814 9.47353 13.3792 9.47353 15.7203ZM56.6733 40.0638C56.6733 42.5661 54.6459 44.5946 52.1449 44.5946C49.644 44.5946 47.6165 42.5661 47.6165 40.0638C47.6165 37.5616 49.644 35.5331 52.1449 35.5331C54.6459 35.5331 56.6733 37.5616 56.6733 40.0638ZM56.7381 56.2294C56.7381 56.2294 56.9164 53.4615 54.7332 53.4615H50.8974C50.8974 53.4615 47.9973 54.3085 47.9973 57.2546V61.6273C47.9973 61.6273 48.5765 65.4205 51.1202 65.4205H54.6886C54.6886 65.4205 56.8273 65.6434 56.8273 62.9647C56.8273 60.2859 56.7381 56.2294 56.7381 56.2294ZM39.2159 28.8789V25.264C39.2159 25.264 38.7258 23.0797 36.6723 23.0797H21.556C21.556 23.0797 18.344 23.3026 18.344 26.4271V28.9721C18.344 28.9721 14.33 28.9275 14.33 32.6761C14.33 36.4247 17.943 36.1126 17.943 36.1126C17.943 36.1126 19.8589 45.3038 29.0898 45.17C38.3208 45.0363 39.2564 36.0681 39.2564 36.0681C39.2564 36.0681 43.2704 35.756 43.4041 32.7207C43.5378 29.6853 40.6376 28.9275 39.2119 28.8829L39.2159 28.8789Z" stroke="#CDFDF3" stroke-width="1.78" stroke-linecap="round" stroke-linejoin="round"/>
</svg>
