<svg width="64" height="65" viewBox="0 0 64 65" fill="none" xmlns="http://www.w3.org/2000/svg">
<path d="M14.5867 9.44334L32.8995 16.5646V20.2874C32.8995 20.2874 37.1044 20.0896 37.1044 23.5553C37.1044 27.0209 33.3188 27.377 33.3188 27.377C33.3188 27.377 31.1517 36.2311 23.1925 36.2311C15.2333 36.2311 12.9016 28.7182 12.9016 27.4126C12.9016 27.4126 9.01798 27.1515 9.01798 24.0142C9.01798 20.8769 12.7722 20.2241 12.7722 20.2241V16.8257L17.8864 11.2711M29.0825 34.2688V37.9956M17.4984 34.5972V38.32M36.7204 21.5969C36.7204 21.5969 38.1429 19.8997 38.0802 15.3263C38.0136 10.7529 34.9099 5.85502 31.7395 3.56831C28.5692 1.2816 21.7739 -0.744 14.524 3.3705C7.27409 7.485 7.53666 17.4152 9.28055 22.317M29.3412 41.9162C29.3412 41.9162 26.8801 43.289 23.1298 43.289C19.3794 43.289 16.4638 41.9162 15.1706 41.1329C13.8774 40.3495 12.9055 40.0884 10.1231 40.8718C7.34071 41.6551 1 46.3591 1 51.8464V64M23.5178 43.4156V51.6486M43.2531 59.8143C43.2531 59.8143 47.0074 62.9516 48.5593 63.7349C48.5593 63.7349 57.4903 57.7887 60.5314 52.2381C63.5724 46.6875 63.0551 42.9607 62.7965 40.8718C62.5378 38.7829 59.7554 35.3172 55.4839 35.4478C51.2123 35.5783 48.5593 40.0212 48.5593 40.0212C48.5593 40.0212 46.3608 35.515 41.1801 35.4478C35.9993 35.3805 33.1542 39.9539 34.2554 46.4224M34.4553 63.5411C34.4553 63.5411 39.2441 60.1427 41.1213 56.7482C42.9984 53.3537 41.4465 50.4775 39.8907 49.5597C38.335 48.6418 35.6192 49.3619 34.4553 50.9958C34.4553 50.9958 31.9315 47.728 28.4359 50.0819C24.9403 52.4359 27.7227 56.7442 28.3066 57.5948C28.8905 58.4454 32.5115 62.6905 34.4553 63.5411Z" stroke="#CDFDF3" stroke-width="1.78" stroke-linecap="round" stroke-linejoin="round"/>
</svg>
