<svg width="66" height="67" viewBox="0 0 66 67" fill="none" xmlns="http://www.w3.org/2000/svg">
<path d="M15.3858 9.57943L34.5668 17.2018V20.7437C34.5668 20.7437 38.6281 20.9461 38.6281 24.2857C38.6281 27.6253 34.9298 27.9977 34.9298 27.9977C34.9298 27.9977 32.3003 37.1906 24.6416 37.1906C16.9829 37.1906 13.8532 30.1714 13.8532 28.0989C13.8532 28.0989 9.65889 27.6293 9.65889 24.9577C9.65889 22.286 11.1229 20.8814 13.5871 20.8814V17.0722L18.7816 11.5225M38.3619 22.5491C38.3619 22.5491 39.7614 19.8086 39.6928 15.9307C39.6242 12.0527 37.3617 6.37344 32.3003 3.22817C27.2388 0.0828986 21.5119 0.354112 15.4503 3.49534C9.38868 6.63656 7.0576 15.0604 9.9896 22.6787M26.8396 41.3317H21.5119M26.8396 41.3317H26.8355C26.8355 41.3317 29.699 39.8582 30.7637 39.3927C31.8284 38.9272 32.4293 40.5302 32.4293 40.5302V47.4158C32.4293 48.5533 30.9653 48.3509 30.9653 48.3509L26.5694 46.2135H21.641C21.641 46.2135 18.709 47.8853 17.5797 48.4197C16.4505 48.954 15.9827 47.4846 15.9827 47.4846V40.8662C15.9827 39.1944 17.6483 39.4615 17.6483 39.4615L21.5119 41.3317M26.8396 41.3317V45.9423M21.5119 41.3317V46.2095M24.2423 49.6867V66M1 64.9961V53.4999C1 53.4999 1.20165 48.5533 4.86363 45.1449C8.52562 41.7365 11.9214 41.2669 15.9181 41.4693M41.0277 41.1293H37.0996C37.0996 41.1293 36.0994 41.3965 36.0994 42.6675V43.9386C36.0994 43.9386 36.0994 45.408 37.031 45.408H63.4029C63.4029 45.408 65 45.3392 65 44.4729V42.3356C65 42.3356 64.6007 41.1981 63.6691 41.1981H51.2151M40.1606 45.408V62.79C40.1606 62.79 40.2937 64.9961 43.0926 64.9961H58.4786C58.4786 64.9961 60.8097 64.7289 60.8097 62.1868V45.408M56.2766 52.0264H40.4268M44.355 36.3163L46.2868 40.3966L48.6864 35.8507L52.417 34.0453L48.4848 31.908L46.4199 27.2933L44.5566 31.572L40.3623 34.0453L44.355 36.3163ZM58.8093 14.3236L55.2804 6.57179L52.3484 13.7245L45.823 17.4689L52.2153 20.8773L55.1473 27.9612L58.41 20.4766L64.6693 17.5337L58.8093 14.3236Z" stroke="#CDFDF3" stroke-width="1.78" stroke-linecap="round" stroke-linejoin="round"/>
</svg>
