<svg width="48" height="65" viewBox="0 0 48 65" fill="none" xmlns="http://www.w3.org/2000/svg">
<path d="M20.4238 21.7663C20.4238 21.7663 21.4598 24.495 24.2609 24.495C27.0621 24.495 28.4972 23.4775 28.4972 21.2807C28.4972 18.7138 26.0951 18.0663 23.9386 17.5884C21.7821 17.1028 20.8996 15.9542 20.8996 14.4588C20.8996 12.9326 22.5802 11.7301 24.7367 11.892C26.8932 12.0538 28.2593 13.3411 28.2593 14.7055M24.3914 11.6993V9.57949M24.4221 24.5798V26.769M9.05038 27.2777L5.24391 30.3302M5.24391 30.3302L24 41.5997M5.24391 30.3302L1 24.4102L6.32599 20.7873M5.24391 30.3302L1.13046 35.4254L20.2012 47.512L24 41.5997M24 41.5997L43.3317 30.0758M24 41.5997V64M24 41.5997L27.4228 47.1343L46.8772 35.8647L43.3317 30.0758M43.3317 30.0758L39.7784 27.8481M43.3317 30.0758L47 24.6646L42.2496 21.4811M4.29229 37.9074V52.7382L24 64M24 64L43.6463 52.7382V37.9691M35.5729 17.9353C35.5729 24.1124 30.5874 29.12 24.4374 29.12C18.2875 29.12 13.302 24.1124 13.302 17.9353C13.302 11.7581 18.2875 6.75055 24.4374 6.75055C30.5874 6.75055 35.5729 11.7581 35.5729 17.9353ZM40.7147 13.5107L38.0978 12.7245C37.8138 11.9768 37.4761 11.2599 37.0771 10.5739L38.1208 8.03783C36.7471 6.11847 34.959 4.46889 32.8332 3.25099L30.4234 4.55369C30.0627 4.39181 29.702 4.23765 29.326 4.10661C28.95 3.97556 28.5739 3.85994 28.1902 3.75973L27.1388 1.22371C24.7214 0.822875 22.304 0.969332 20.0324 1.5937L19.2496 4.22223C18.5052 4.50744 17.7915 4.8466 17.1084 5.24743L14.5836 4.1991C12.6727 5.57889 11.0304 7.37492 9.81782 9.51011L11.1148 11.9305C10.9536 12.2928 10.8001 12.6551 10.6697 13.0328C10.5392 13.4105 10.4241 13.7882 10.3243 14.1736L7.79947 15.2297C7.4004 17.6578 7.54621 20.0859 8.16783 22.3675L10.7848 23.1538C11.0687 23.9015 11.4064 24.6184 11.8055 25.3044L10.7618 27.8404C12.1355 29.7598 13.9236 31.4094 16.0494 32.6273L18.4591 31.3246C18.8198 31.4864 19.1805 31.6406 19.5566 31.7716C19.9326 31.9027 20.3086 32.0183 20.6924 32.1185L21.7437 34.6545C24.1612 35.0554 26.5786 34.9089 28.8502 34.2845L29.633 31.656C30.3774 31.3708 31.0911 31.0317 31.7741 30.6308L34.299 31.6791C36.2099 30.2994 37.8522 28.5033 39.0647 26.3681L37.7678 23.9477C37.9289 23.5854 38.0824 23.2232 38.2129 22.8455C38.3433 22.4677 38.4585 22.09 38.5582 21.7046L41.0831 20.6486C41.4822 18.2205 41.3363 15.7924 40.7147 13.5107Z" stroke="#CDFDF3" stroke-width="1.8" stroke-linecap="round" stroke-linejoin="round"/>
</svg>
