<svg width="64" height="67" viewBox="0 0 64 67" fill="none" xmlns="http://www.w3.org/2000/svg">
<path d="M15.9817 12.829L35.0788 20.2402V24.1146C35.0788 24.1146 39.4638 23.9087 39.4638 27.5155C39.4638 31.1223 35.516 31.4928 35.516 31.4928C35.516 31.4928 33.2561 40.7074 24.9561 40.7074C16.656 40.7074 14.2245 32.8886 14.2245 31.5299C14.2245 31.5299 10.1746 31.2581 10.1746 27.9931C10.1746 24.7281 14.0896 24.0487 14.0896 24.0487V20.5119L19.4227 14.7312M31.0983 38.6693V42.5437M19.0181 39.0069V42.8813M1 65.9341V57.0284C1 51.3177 7.61224 46.4222 10.5138 45.607C13.4153 44.7917 14.4288 45.0635 15.7774 45.8787C17.126 46.6939 20.1624 48.1226 24.0774 48.1226C27.9925 48.1226 30.5548 46.6939 30.5548 46.6939C30.5548 46.6939 32.7821 44.5859 36.1576 44.7217M24.4861 48.2544V56.8225M19.9622 30.3935C19.9622 30.3935 20.7713 34.8814 24.7313 34.8814C28.6913 34.8814 29.5454 30.0312 29.5454 30.0312M14.6985 13.5125C14.6985 13.5125 16.5866 11.7462 16.4517 10.1116C16.3168 8.47704 12.3364 7.73181 10.8489 6.10135C9.36133 4.47089 9.23056 1 9.23056 1C9.23056 1 5.58525 4.87439 5.98983 8.81878C6.39441 12.7632 10.5097 16.1599 10.5097 16.1599M34.4739 13.7143C34.4739 13.7143 32.7208 11.5403 33.3256 9.56813C33.9304 7.59593 36.5663 8.07354 38.389 6.03136C40.2116 3.98917 40.3465 1 40.3465 1C40.3465 1 43.7221 5.08026 43.5177 9.16051C43.3134 13.2408 39.4678 15.5506 39.4678 15.5506C39.4678 15.5506 41.6951 19.9685 39.1981 25.8192M9.56975 15.6865C9.56975 15.6865 7.95143 21.8048 10.7181 26.1568M14.2939 7.93355C14.2939 7.93355 17.3303 4.05916 24.2818 3.8533C31.2332 3.64743 34.6088 7.59182 34.6088 7.59182M44.3923 54.8503C44.3923 54.8503 45.9452 60.1534 51.544 60.1534C57.1427 60.1534 58.5608 54.4427 58.5608 54.4427M59.1043 49.2755C59.1043 49.2755 58.8346 46.6898 56.2028 46.5539C53.571 46.4181 53.3666 49.2055 53.3666 49.2055M49.4557 49.2755C49.4557 49.2755 49.186 46.6898 46.5541 46.5539C43.9223 46.4181 43.718 49.2055 43.718 49.2055M62.954 37.3764C62.954 37.3764 56.9465 39.6204 51.8178 39.6204C46.689 39.6204 40.1422 37.1047 40.1422 37.1047V54.0351C40.1422 54.0351 40.4119 66 51.1435 66C61.8751 66 62.8845 56.1432 62.8845 54.6445C62.8845 53.1458 63.0888 37.5123 62.954 37.3764Z" stroke="#CDFDF3" stroke-width="1.78" stroke-linecap="round" stroke-linejoin="round"/>
</svg>
