<svg width="60" height="67" viewBox="0 0 60 67" fill="none" xmlns="http://www.w3.org/2000/svg">
<path d="M15.498 16.4779L34.6735 23.8808V27.3805C34.6735 27.3805 38.7482 27.7187 38.7482 30.8803C38.7482 34.0419 34.9041 34.7508 34.9041 34.7508C34.9041 34.7508 32.6665 44.0685 24.7802 44.0685C16.894 44.0685 13.8228 36.6657 13.8228 34.9871C13.8228 34.9871 9.74815 34.8526 9.74815 31.3529C9.74815 27.8531 13.491 27.5842 13.491 27.5842V23.8849L18.9697 18.3684M14.6321 11.0307C14.6321 11.0307 10.0233 14.4612 8.95103 20.1121C7.87875 25.7631 10.1528 29.2628 10.1528 29.2628M33.8764 11.2304C33.8764 11.2304 37.4857 13.8541 38.8898 17.4883C40.2938 21.1225 40.0915 25.8975 38.4892 29.1936M40.2898 65.5274V49.9191C40.2898 49.9191 39.8892 48.1712 38.6875 48.1712H31.8047C31.8047 48.1712 30.4694 48.375 30.4694 50.188V66M34.2082 54.1563V56.3767M36.814 62.6999V65.4581M18.4397 65.4581V50.6565C18.4397 50.6565 18.8402 48.0327 17.3026 48.0327H10.088C10.088 48.0327 8.75276 48.0327 8.75276 50.3184V65.8615M12.4916 53.5492V56.3074M15.0974 59.6035V62.7692M18.4397 42.0436V45.0056M30.4694 42.1129V44.8019M18.7067 49.7154C18.7067 49.7154 20.8432 50.8602 24.1207 50.8602C27.3982 50.8602 29.4659 50.1187 30.3358 49.6502M8.55044 49.7154C8.55044 49.7154 5.27696 51.0599 3.33878 54.0218C1.40059 56.9838 1 59.4038 1 60.4794V65.5926M40.4921 49.3772C40.4921 49.3772 41.9609 50.9906 43.4338 51.7973M44.3644 38.0102C44.3644 38.0102 45.5015 44.0644 50.6443 44.0644C55.7872 44.0644 57.0578 38.8168 57.0578 38.0753M57.0618 34.4411C57.0618 34.4411 55.8601 28.7902 50.6484 28.7902C45.4367 28.7902 44.3685 34.5104 44.3685 34.5104M42.0257 37.672H59M50.6484 25.7631V28.2524M50.6484 44.0644V50.6565M33.6093 12.037L34.6128 4.03122L29.0653 6.31685L24.2542 1L19.5119 6.4513L14.0979 4.0964L14.7656 12.037C14.7656 12.037 33.6741 11.9678 33.6093 12.037ZM56.8595 53.484C56.8595 53.484 56.4589 50.9254 54.456 50.9254H49.3091C49.3091 50.9254 45.5662 51.8666 45.5662 55.0281V60.8828C45.5662 60.8828 45.9668 63.1032 47.4356 64.1788C48.9044 65.2544 50.6443 65.2544 50.6443 65.2544H53.8531C53.8531 65.2544 56.9283 65.1852 56.9283 62.4269L56.8595 53.4799V53.484Z" stroke="#CDFDF3" stroke-width="1.78" stroke-linecap="round" stroke-linejoin="round"/>
</svg>
