<svg width="62" height="65" viewBox="0 0 62 65" fill="none" xmlns="http://www.w3.org/2000/svg">
<path d="M15.5684 8.47927H12.8082C12.8082 8.47927 8.23915 8.99455 8.23915 14.1512V34.5201C8.23915 34.5201 8.84209 39.4191 11.1716 42.257C13.5011 45.0949 16.8604 48.4442 18.2424 51.5397C19.6245 54.6353 19.3622 59.5343 19.3622 59.5343M32.1217 8.39339H34.5374C34.5374 8.39339 39.4509 9.08043 39.4509 13.55V30.9991C39.4509 30.9991 39.3648 36.9286 36.26 43.2056C33.1553 49.4826 28.414 59.5343 28.414 59.5343C28.414 59.5343 26.433 63.6604 20.9987 63.918C15.5644 64.1757 12.2914 58.8473 12.6359 52.9177M8.0708 30.8234C8.0708 30.8234 1 34.606 1 40.3638V64M8.15693 16.2123C8.15693 16.2123 4.44927 16.384 4.44927 19.8231C4.44927 23.2622 7.89853 23.348 7.89853 23.348M39.3608 16.384C39.3608 16.384 43.4131 16.384 43.4131 19.909C43.4131 23.4339 39.7485 23.5627 39.7485 23.5627M39.447 30.9952C39.447 30.9952 44.016 32.7986 46.3416 38.3027M61 34.8636V30.394C61 30.394 60.6555 25.1515 55.8281 25.1515C51.0007 25.1515 50.3546 30.6087 50.3546 30.6087V40.6214M50.2215 55.0647V63.7424M23.845 1V4.52494M27.9834 2.37406V5.29785M20.9126 23.4339H26.8597M12.2914 16.0405C12.2914 16.0405 17.0326 18.2734 24.1034 18.2734C31.1742 18.2734 35.3086 16.2982 35.3086 16.2982C35.3086 16.2982 33.9305 4.78258 24.3618 4.78258C14.7931 4.78258 12.2914 13.7218 12.2914 16.0405ZM56.5171 44.404C56.5171 44.404 56.5171 40.7932 53.4124 40.7932H48.8434C48.8434 40.7932 45.308 42.0814 45.308 47.3239C45.308 52.5664 45.308 49.7324 45.308 49.7324C45.308 49.7324 45.3941 53.7726 48.585 54.7173H53.6708C53.6708 54.7173 56.6894 54.4596 56.6894 51.1064C56.6894 47.7533 56.5171 44.404 56.5171 44.404Z" stroke="#CDFDF3" stroke-width="1.78" stroke-linecap="round" stroke-linejoin="round"/>
</svg>
