<svg width="50" height="64" viewBox="0 0 50 64" fill="none" xmlns="http://www.w3.org/2000/svg">
<g clip-path="url(#clip0_3148_1424)">
<path fill-rule="evenodd" clip-rule="evenodd" d="M35.1082 44.6593C35.4985 45.1204 34.8932 45.722 34.4233 45.3431C34.1579 44.866 34.6145 44.3757 35.1082 44.6593Z" fill="#07601F"/>
<path fill-rule="evenodd" clip-rule="evenodd" d="M12.1749 45.7752C11.5882 45.2796 10.606 44.8927 9.81226 45.4651C8.43983 46.4537 9.04774 49.6763 10.9299 49.5597C11.5033 49.5226 11.6625 49.1913 12.1722 49.0005C12.658 50.0182 11.2458 50.2382 10.3087 50.1162C7.65407 49.7744 7.66734 44.5853 10.6803 44.5322C11.3174 44.519 12.7191 44.7602 12.1722 45.7725L12.1749 45.7752Z" fill="#07601F"/>
<path fill-rule="evenodd" clip-rule="evenodd" d="M41.073 44.7204C41.2164 46.1913 41.0943 47.9245 41.1341 49.4987C41.1235 49.7797 41.5721 49.6021 41.5058 49.9334C41.4394 50.1931 40.8129 50.0314 40.635 49.997C40.2236 48.5447 40.5554 46.3529 40.4492 44.5985C40.7253 44.572 40.9297 44.6144 41.0704 44.723L41.073 44.7204Z" fill="#07601F"/>
<path fill-rule="evenodd" clip-rule="evenodd" d="M14.6598 46.2096C15.2677 46.1407 15.7641 46.2812 16.088 46.5807C16.8817 47.3174 16.6932 49.3157 15.9022 49.8696C14.113 51.1231 12.3768 48.7406 13.2927 47.0153C13.5236 46.578 13.9484 46.2891 14.6598 46.2096ZM15.1562 49.5595C16.2075 49.2945 16.2632 46.3501 14.535 46.8298C13.2529 47.1849 13.6404 49.9385 15.1562 49.5595Z" fill="#07601F"/>
<path fill-rule="evenodd" clip-rule="evenodd" d="M20.5025 46.6445C20.9724 46.1542 21.9626 45.9793 22.4908 46.3344C23.3669 46.9201 22.7244 48.7382 22.9262 49.997H22.2413C22.1723 49.0297 22.3873 47.7815 22.1165 47.0182C21.7714 46.6074 20.829 46.7744 20.6246 47.2037C20.7414 48.0385 20.6671 49.0668 20.6857 49.997H20.0008C19.8176 49.0615 20.322 47.6251 19.815 47.0182C19.4513 46.5809 18.6549 46.777 18.262 47.2037V49.997H17.5771V46.2125C17.9541 46.1887 18.1107 46.3848 18.262 46.5836C18.7823 46.0668 20.0672 46.0111 20.4999 46.6472L20.5025 46.6445Z" fill="#07601F"/>
<path fill-rule="evenodd" clip-rule="evenodd" d="M27.2133 48.1947C26.4859 48.3378 25.4958 48.2186 24.6649 48.2557C24.6065 49.2018 25.2568 49.6709 26.0957 49.5596C26.4886 49.5066 26.6638 49.1938 26.9664 49.1885C27.362 50.1638 25.9444 50.2539 25.225 50.1188C23.8977 49.867 23.3482 47.336 24.6038 46.4588C25.7294 45.6691 27.5239 46.4297 27.2133 48.1974V48.1947ZM24.6649 47.7601H26.5284C26.6956 46.382 24.5189 46.4217 24.6649 47.7601Z" fill="#07601F"/>
<path fill-rule="evenodd" clip-rule="evenodd" d="M30.197 46.3344C30.3324 46.5915 30.1121 46.7611 30.0723 47.0155C29.7404 46.7081 28.9812 46.8061 28.8299 47.201V49.9943H28.145V46.2098C28.4689 46.2178 28.7158 46.3026 28.7662 46.5808C29.0609 46.2602 29.7431 45.9739 30.197 46.3317V46.3344Z" fill="#07601F"/>
<path fill-rule="evenodd" clip-rule="evenodd" d="M33.4912 47.2038C33.0081 47.0686 33.0532 46.8354 32.6842 46.7691C30.8525 46.4484 30.6933 49.7983 32.6232 49.5624C33.0107 49.5147 33.1541 49.1755 33.4939 49.1914C33.8416 50.6623 31.3197 50.1296 30.8844 49.4988C29.9686 48.1764 30.895 46.1675 32.3763 46.149C32.7267 46.1463 33.9239 46.2656 33.4939 47.2038H33.4912Z" fill="#07601F"/>
<path fill-rule="evenodd" clip-rule="evenodd" d="M39.6449 49.8698C39.5015 50.2594 38.5645 50.058 38.5884 49.6816C37.5132 50.7497 35.3657 49.6684 36.3505 48.2558C36.7354 47.7046 37.7999 47.6277 38.5884 47.5747C38.7052 46.4139 37.0965 46.7479 36.5363 47.0765C36.016 46.0137 38.3441 45.9554 38.8963 46.4563C39.5945 47.0844 38.9627 48.4864 39.2706 49.4961C39.2573 49.7585 39.7139 49.5518 39.6422 49.8698H39.6449ZM36.8469 48.815C36.7222 49.8089 38.2114 49.7002 38.5884 49.0032V48.1339C37.7283 48.126 36.9292 48.1763 36.8469 48.815Z" fill="#07601F"/>
<path fill-rule="evenodd" clip-rule="evenodd" d="M35.1081 46.3955C35.2462 47.3125 35.132 48.4812 35.1692 49.4963C35.1586 49.7772 35.6072 49.5996 35.5409 49.9309C35.44 50.1906 34.7392 50.0501 34.6091 49.9309C34.3383 48.9212 34.556 47.4211 34.4843 46.2073C34.7976 46.1623 34.9542 46.2762 35.1055 46.3929L35.1081 46.3955Z" fill="#07601F"/>
<path fill-rule="evenodd" clip-rule="evenodd" d="M19.2548 53.1425C19.3955 53.7044 19.2787 54.526 19.3158 55.1912C20.2025 55.0003 22.4616 54.7936 21.8643 56.4315C21.0785 56.2486 20.152 56.1982 19.3158 56.3705C19.6662 57.8255 18.6894 60.9978 19.6901 61.769C20.152 62.1241 21.0466 61.9227 21.6784 61.7054C21.9598 63.8574 18.6469 63.3538 18.0124 62.201C17.5293 61.3264 17.7629 59.3864 17.7629 57.6108C17.7629 55.1461 17.2585 53.0789 19.2548 53.1425Z" fill="#07601F"/>
<path fill-rule="evenodd" clip-rule="evenodd" d="M27.7071 56.1825C26.3107 56.0765 25.0976 56.5217 24.848 57.7328C24.5242 59.2938 25.14 61.3689 24.787 63.0068C22.804 63.6852 23.2951 60.9317 23.2951 59.1587V55.2496C24.1207 54.9051 25.0179 55.2734 24.848 56.3044C24.9755 55.133 28.2247 54.0729 27.7071 56.1798V56.1825Z" fill="#07601F"/>
<path fill-rule="evenodd" clip-rule="evenodd" d="M29.6956 59.4711C29.7328 61.2414 31.1875 62.1823 33.0511 61.9517C33.5873 61.8854 34.0147 61.5515 34.4792 61.5171C34.8907 63.1098 32.9953 63.2662 31.9308 63.2556C31.0442 63.245 30.0699 62.9879 29.5071 62.5745C26.7756 60.5683 27.9648 55.3023 31.1849 54.9419C33.2263 54.714 35.3234 56.0417 34.5403 58.1062C34.028 59.4552 31.7291 59.9481 29.693 59.4711H29.6956ZM33.0511 57.6106C33.2422 56.8474 32.6688 56.3385 32.2441 56.2458C30.8822 55.9463 29.5204 57.0992 29.7593 58.3554C30.9433 58.5541 32.8095 58.5833 33.0537 57.6106H33.0511Z" fill="#07601F"/>
<path fill-rule="evenodd" clip-rule="evenodd" d="M41.1923 56.6171C40.5048 56.5561 39.796 56.0738 38.7076 56.1825C38.0094 56.2514 37.3697 56.5747 37.4652 57.3618C37.5953 58.4537 39.6314 58.2655 40.6959 58.9122C41.6595 59.4979 42.0763 61.1384 41.256 62.2011C40.7915 62.8027 39.5066 63.2559 38.2722 63.2559C37.1414 63.2559 35.5566 63.0041 36.0981 61.4564C37.006 61.9281 40.3667 62.5986 40.0747 60.7117C39.9606 59.9776 38.9863 59.8477 38.2112 59.6569C36.7538 59.2991 35.0841 58.2708 36.0344 56.307C36.3609 55.6339 37.3086 55.0535 38.3944 54.9422C39.6925 54.8096 41.6409 54.8945 41.1923 56.6171Z" fill="#07601F"/>
<path fill-rule="evenodd" clip-rule="evenodd" d="M49.0235 62.9482C48.4103 63.2345 47.3829 63.0675 47.4706 62.2645C46.4618 63.6055 43.1196 63.6081 42.748 61.5807C42.2755 58.9994 44.869 58.2044 47.4706 58.5409C47.4918 57.8121 47.4015 57.3589 47.16 56.9879C46.3795 55.798 44.2319 56.4314 43.2444 56.8024C42.5356 54.7511 46.4326 54.5179 47.7811 55.313C49.719 56.4526 48.8191 60.0701 49.0235 62.9456V62.9482ZM44.5478 60.2185C43.2842 62.1505 46.9927 62.7468 47.4679 61.0878C47.6086 60.5975 47.3644 60.1735 47.4679 59.5984C46.4432 59.5056 45.0018 59.5242 44.5478 60.2185Z" fill="#07601F"/>
<path fill-rule="evenodd" clip-rule="evenodd" d="M7.0728 63.0093C4.31997 63.6931 6.04812 58.6815 5.39508 57.0543C4.82169 55.6232 2.69269 56.3387 2.10071 57.3034V63.012C0.0778995 63.7169 0.547766 60.9872 0.547766 59.2884V55.2548C1.21407 54.9633 2.18035 55.162 2.10071 55.9995C2.95284 54.9553 5.48003 54.579 6.51268 55.7504C7.82671 57.2424 6.67992 60.5711 7.0728 63.0093Z" fill="#07601F"/>
<path fill-rule="evenodd" clip-rule="evenodd" d="M13.9719 55.1913C16.0053 54.5102 15.5249 57.2425 15.5249 58.9758C15.5249 60.6136 15.5726 61.9944 15.4638 63.0094C14.7311 63.2082 13.9507 63.0147 13.9719 62.2647C12.7933 63.5129 9.61569 63.7488 9.24936 61.52C8.96 59.7629 9.46438 57.1524 9.24936 55.1913C12.5172 54.2292 9.36881 61.5014 11.673 61.9546C12.5543 62.1295 13.3985 61.6604 13.9719 60.8998V55.1913Z" fill="#07601F"/>
<path d="M5.03129 23.129C5.03129 24.2554 4.0889 25.1671 2.92884 25.1671C1.76877 25.1671 0.82373 24.2527 0.82373 23.129C0.82373 22.0054 1.76612 21.0884 2.92884 21.0884C4.09156 21.0884 5.03129 22.0001 5.03129 23.129Z" fill="#4B9228"/>
<path d="M8.70805 10.4848C8.70805 11.6111 7.76566 12.5255 6.60294 12.5255C5.44022 12.5255 4.50049 11.6111 4.50049 10.4848C4.50049 9.35845 5.44288 8.44678 6.60294 8.44678C7.76301 8.44678 8.70805 9.3611 8.70805 10.4848Z" fill="#4B9228"/>
<path d="M19.823 2.70912C19.823 3.83546 18.8806 4.74714 17.7179 4.74714C16.5552 4.74714 15.6128 3.83281 15.6128 2.70912C15.6128 1.58543 16.5552 0.668457 17.7179 0.668457C18.8806 0.668457 19.823 1.58013 19.823 2.70912Z" fill="#4B9228"/>
<path d="M33.2498 2.70912C33.2498 3.83546 32.3074 4.74714 31.1447 4.74714C29.9819 4.74714 29.0396 3.83281 29.0396 2.70912C29.0396 1.58543 29.9819 0.668457 31.1447 0.668457C32.3074 0.668457 33.2498 1.58013 33.2498 2.70912Z" fill="#4B9228"/>
<path d="M44.6329 10.5668C44.6329 11.6932 43.6905 12.6048 42.5277 12.6048C41.365 12.6048 40.4253 11.6905 40.4253 10.5668C40.4253 9.44313 41.3677 8.52881 42.5277 8.52881C43.6878 8.52881 44.6329 9.44048 44.6329 10.5668Z" fill="#4B9228"/>
<path d="M48.7186 22.6413C48.7186 23.7676 47.7762 24.6793 46.6161 24.6793C45.4561 24.6793 44.5137 23.7649 44.5137 22.6413C44.5137 21.5176 45.4561 20.6006 46.6161 20.6006C47.7762 20.6006 48.7186 21.5123 48.7186 22.6413Z" fill="#4B9228"/>
<path d="M9.06383 25.5749C9.06383 25.5749 6.58708 26.1182 5.46949 26.908C5.57832 26.7702 2.85469 28.5379 2.39014 29.1925C2.39014 29.166 2.85204 27.2896 5.16951 25.7127C5.36065 25.5776 8.41079 24.218 9.28151 25.1429C9.25496 25.2516 9.3638 25.4133 9.06383 25.5776V25.5749Z" fill="#4B9228"/>
<path d="M13.0827 13.9434C13.0827 13.9434 11.8642 11.7834 11.7872 10.4477C11.7447 10.6173 11.4209 7.46359 11.6704 6.69238C11.6465 6.71093 10.3325 8.29841 10.5422 11.0281C10.5528 11.256 11.4554 14.3753 12.8544 14.3913C12.9313 14.2985 13.1464 14.2693 13.0827 13.9434Z" fill="#4B9228"/>
<path d="M39.0875 15.9284C39.0875 15.9284 41.3891 14.9372 42.7403 14.9663C42.5757 14.9133 45.7798 14.8471 46.5284 15.1466C46.5125 15.1227 45.0551 13.7499 42.2864 13.7393C42.0554 13.734 38.8221 14.3488 38.6602 15.6766C38.7451 15.7561 38.7531 15.9628 39.0875 15.9284Z" fill="#4B9228"/>
<path d="M3.86056 18.3716C3.86056 18.3716 4.52687 21.157 8.2858 23.089C8.38137 23.1287 10.3564 24.2312 13.0376 24.218C13.011 24.2312 13.9083 24.2445 14.3436 24.1093C14.3303 24.1093 14.6011 24.0828 14.5746 23.7144C14.5613 23.7436 14.5613 23.4547 14.1259 23.4838C13.6906 23.5103 11.62 23.2268 9.91839 22.3549C9.84937 22.3549 6.41696 20.7091 3.85791 18.3716H3.86056Z" fill="#4B9228"/>
<path d="M40.5449 24.7324C40.5449 24.7324 42.9579 25.5195 43.9906 26.4153C43.8976 26.2695 46.4301 28.2996 46.8257 28.9939C46.8257 28.9674 46.5549 27.054 44.41 25.2545C44.2348 25.1008 41.3333 23.4444 40.375 24.2766C40.3909 24.3879 40.2661 24.5389 40.5475 24.7297L40.5449 24.7324Z" fill="#4B9228"/>
<path d="M3.7915 15.4749C3.7915 15.4749 9.25204 15.2708 15.6523 18.9414C15.7611 19.0235 18.5113 20.4361 20.7465 22.5298C20.773 22.6119 21.1288 22.9114 21.1288 22.9114C21.1288 22.9114 21.3464 23.0492 21.6464 22.7762C21.6199 22.7762 21.8083 22.5033 21.4287 22.0156C21.0465 21.5253 19.4139 18.3186 13.9374 15.9519C13.802 15.9519 7.21064 12.8803 3.7915 15.4775V15.4749Z" fill="#4B9228"/>
<path d="M34.6329 23.8421C34.6329 23.8421 38.145 24.555 41.9039 22.3129C42.0473 22.191 43.8843 21.2316 44.7417 18.9869C44.8028 18.8862 45.1717 17.8473 44.8028 16.8667C44.824 16.9065 44.025 18.9074 40.7173 21.107C40.6775 21.107 39.5121 22.2281 35.3046 23.2087L34.5905 23.2908C34.5905 23.2908 34.2029 23.3094 34.1604 23.5346C34.1206 23.7599 34.6303 23.8394 34.6303 23.8394L34.6329 23.8421Z" fill="#4B9228"/>
<path d="M12.2441 5.20297C12.2441 5.20297 12.268 5.21092 12.3158 5.22947C12.8706 5.44678 16.595 7.03426 19.2736 11.6668C19.3134 11.7278 20.4389 13.3603 21.2353 15.9893C21.2353 16.0317 21.4185 16.8666 21.8273 16.8454C22.2361 16.8242 22.2759 16.09 22.114 15.1731C21.9494 14.2534 21.5618 10.9513 18.7639 7.74717C18.7426 7.66766 15.5359 4.17998 12.2468 5.19766L12.2441 5.20297Z" fill="#4B9228"/>
<path d="M23.5394 1.30713C23.5394 1.30713 21.8856 2.8575 21.4555 4.73385C21.4555 4.6729 21.0865 5.77539 21.0467 7.07929C21.0281 7.07929 21.2299 8.28249 20.8636 8.34344C20.4972 8.4044 19.9849 6.30543 20.5769 4.16406C21.1688 2.02269 22.4961 1.53505 23.5394 1.30978V1.30713Z" fill="#4B9228"/>
<path d="M25.9897 0.186035C25.9897 0.186035 26.7251 1.79736 27.0516 4.50853C27.0304 4.50853 27.1525 6.08011 26.9905 6.99708C26.8286 7.91406 27.1737 7.93526 27.3383 7.95646C27.5029 7.97501 28.1559 7.30451 28.2382 5.24264C28.3205 3.18343 27.4631 1.51114 25.9924 0.186035H25.9897Z" fill="#4B9228"/>
<path d="M34.4684 5.87619C34.4684 5.87619 30.9962 7.36561 28.2805 11.9531C28.1584 12.0565 26.3798 15.4408 26.6453 18.5813C26.6453 18.5389 26.6851 19.8852 26.6851 19.8852C26.6851 19.8852 26.7064 20.4153 26.3984 20.4365C26.0931 20.4577 25.602 19.9674 25.2331 17.5C25.0605 16.3392 25.1428 15.0936 25.3605 13.9461C25.6312 12.5203 26.1489 11.1369 26.9878 9.94426C27.9726 8.5476 29.2601 7.3338 30.821 6.60499C31.267 6.39828 31.7395 6.23131 32.2147 6.1041C32.5731 6.0087 32.9394 5.94509 33.311 5.91329C33.4995 5.89474 33.6906 5.88679 33.8818 5.88149C34.0357 5.87884 34.3278 5.93184 34.4658 5.87354L34.4684 5.87619Z" fill="#4B9228"/>
<path d="M38.307 4.42892C38.2832 4.37327 39.0849 8.65071 36.9797 12.8089C36.8975 12.9123 35.9604 15.2974 33.3854 17.4998C33.3642 17.4786 32.589 18.051 32.9368 18.3955C33.2845 18.7427 33.9163 18.3531 34.365 18.0696C34.8136 17.7833 37.4708 16.3363 38.8194 12.5836C38.8194 12.5836 40.2635 8.64806 38.3097 4.42627L38.307 4.42892Z" fill="#4B9228"/>
<path d="M43.3269 42.6794C43.3269 42.6794 42.7535 42.462 42.7827 42.3534C37.2187 39.6184 31.5272 38.773 27.9647 38.5291C27.7789 38.0044 26.7542 34.8639 27.2586 31.1642C27.2373 31.0211 27.5028 28.0025 29.0956 24.7825C29.2389 24.5387 29.8097 23.3143 30.0778 22.9671C30.3432 22.6199 30.5689 22.2754 30.3008 22.0899C30.0353 21.907 26.6454 24.9468 25.5623 29.2083C24.4872 33.4381 25.6048 37.2226 26.4011 38.4549C25.1774 38.4205 24.4261 38.4602 24.3438 38.4655C23.7067 38.4655 23.0802 38.4867 22.4643 38.5185C22.8705 37.9699 23.1731 37.1802 23.1731 37.1616C24.4819 33.2473 22.6422 30.6553 22.621 30.5546C22.1325 29.6986 21.8458 29.9424 21.8458 29.9424C21.5591 30.0856 21.7237 30.4725 21.7237 30.4725C21.7237 30.4725 21.9494 31.1854 22.1936 32.5529C22.4378 33.9204 22.2334 35.0627 22.2334 35.0627C22.1431 37.0821 21.2406 38.3701 21.0468 38.6219C12.7352 39.3639 6.8924 42.5469 6.8924 42.5469C6.49155 42.955 7.02248 42.8728 7.02248 42.8728C7.02248 42.8728 7.45783 42.7377 7.45783 42.7642C16.8552 39.9099 24.235 40.2094 24.235 40.2094C34.203 39.8834 42.3208 42.7377 42.9447 42.8728C43.5712 43.0106 43.3269 42.682 43.3269 42.682V42.6794Z" fill="#4B9228"/>
</g>
<defs>
<clipPath id="clip0_3148_1424">
<rect width="48.5581" height="63.0698" fill="white" transform="translate(0.5 0.186035)"/>
</clipPath>
</defs>
</svg>
