<svg width="66" height="67" viewBox="0 0 66 67" fill="none" xmlns="http://www.w3.org/2000/svg">
<g clip-path="url(#clip0_2157_7433)">
<path d="M52.4392 59.1305L52.824 55.7772L62.939 45.9277C62.939 45.9277 65.4443 43.8297 65.222 40.7291C64.9996 37.6285 64.1275 18.3593 64.1275 18.3593C64.1275 18.3593 63.9565 14.0285 60.297 14.2645C57.5865 14.433 56.988 17.4662 57.0393 18.9575C57.0906 20.4488 57.4583 35.8592 56.7571 37.3252C56.4066 38.0498 49.0875 44.4869 49.0875 44.4869M54.782 39.1704C54.782 39.1704 56.6545 37.0135 54.9787 34.9998C53.2943 32.986 50.3615 35.0419 48.0871 36.8197C45.8127 38.5975 40.4089 43.4759 39.9985 43.9982C39.5881 44.5206 39.1178 45.4137 39.152 48.8514C39.1777 52.289 39.323 59.1137 39.323 59.1137M13.5609 59.1305L13.1761 55.7772L3.06106 45.9277C3.06106 45.9277 0.555818 43.8297 0.778126 40.7291C1.00899 37.6285 1.87257 18.3593 1.87257 18.3593C1.87257 18.3593 2.04357 14.0285 5.70312 14.2645C8.41357 14.433 9.01209 17.4662 8.96079 18.9575C8.90949 20.4488 8.54183 35.8592 9.24295 37.3252C9.59352 38.0498 16.9126 44.4869 16.9126 44.4869M11.2181 39.1704C11.2181 39.1704 9.34556 37.0135 11.0214 34.9998C12.6973 32.986 15.6386 35.0419 17.913 36.8197C20.1874 38.5975 25.5912 43.4759 26.0016 43.9982C26.412 44.5206 26.8823 45.4137 26.8481 48.8514C26.8224 52.289 26.6771 59.1137 26.6771 59.1137M33.0043 4.42342V0.758301M25.309 6.23491L22.9662 3.3955M40.4089 6.04112L43.0339 3.45448M46.796 12.3266L49.7544 10.1191M18.9818 12.394L16.2457 9.91688M35.0136 63.6129V61.8099C35.0136 60.3534 36.2118 59.1727 37.6899 59.1727H53.9697C55.4478 59.1727 56.646 60.3534 56.646 61.8099V63.6129C56.646 65.0694 55.4478 66.2501 53.9697 66.2501H37.6899C36.2118 66.2501 35.0136 65.0694 35.0136 63.6129ZM9.35411 63.6045V61.8014C9.35411 60.345 10.5523 59.1642 12.0304 59.1642H28.3102C29.7882 59.1642 30.9864 60.345 30.9864 61.8014V63.6045C30.9864 65.061 29.7882 66.2417 28.3102 66.2417H12.0304C10.5523 66.2417 9.35411 65.061 9.35411 63.6045ZM42.8115 22.749C42.8115 28.0863 38.4207 32.4131 33.0043 32.4131C27.5879 32.4131 23.1971 28.0863 23.1971 22.749C23.1971 17.4117 27.5879 13.0849 33.0043 13.0849C38.4207 13.0849 42.8115 17.4117 42.8115 22.749ZM47.3347 18.9238L45.0261 18.2413C44.7781 17.601 44.4789 16.9775 44.1283 16.3793L45.0517 14.1886C43.8376 12.5288 42.2643 11.1049 40.4004 10.0517L38.2799 11.1807C37.9635 11.0375 37.6386 10.9111 37.3137 10.7931C36.9888 10.6752 36.6468 10.5825 36.3133 10.4898L35.3899 8.29917C33.2608 7.95372 31.1318 8.08011 29.131 8.61934L28.4384 10.8942C27.7886 11.1386 27.1559 11.4335 26.5488 11.7789L24.3257 10.869C22.6413 12.0654 21.1963 13.6157 20.1275 15.4525L21.2733 17.542C21.1279 17.8537 20.9997 18.1739 20.88 18.4941C20.7602 18.8143 20.6662 19.1513 20.5721 19.4799L18.3491 20.3898C17.9985 22.4878 18.1267 24.5858 18.674 26.5573L20.9826 27.2398C21.2305 27.8802 21.5298 28.5036 21.8803 29.1019L20.9569 31.2925C22.1711 32.9523 23.7443 34.3763 25.6083 35.4295L27.7288 34.3004C28.0451 34.4437 28.37 34.57 28.695 34.688C29.0199 34.806 29.3619 34.8986 29.6953 34.9913L30.6188 37.182C32.7478 37.5274 34.8768 37.401 36.8776 36.8618L37.5702 34.5869C38.22 34.3426 38.8527 34.0477 39.4598 33.7022L41.6829 34.6122C43.3673 33.4157 44.8123 31.8654 45.8811 30.0287L44.7354 27.9391C44.8807 27.6274 45.009 27.3072 45.1287 26.987C45.2484 26.6669 45.3424 26.3299 45.4365 26.0013L47.6596 25.0913C48.0102 22.9933 47.8819 20.8954 47.3347 18.9238ZM38.1944 22.6732C38.562 22.1761 38.7929 21.5694 38.7929 20.9038C38.7929 19.244 37.4248 17.8959 35.7404 17.8959C34.4921 17.8959 33.4318 18.6373 32.953 19.6905C32.4742 18.6373 31.414 17.8959 30.1656 17.8959C28.4812 17.8959 27.1131 19.244 27.1131 20.9038C27.1131 21.4599 27.2756 21.9738 27.5407 22.4204L27.515 22.4457L31.2515 27.223H31.2772C31.679 27.7032 32.2775 28.015 32.953 28.015C33.7311 28.015 34.4151 27.6021 34.7999 26.9955L38.2029 22.69L38.1944 22.6732Z" stroke="#F8D2EA" stroke-width="1.8" stroke-linecap="round" stroke-linejoin="round"/>
<path d="M39.1263 64.0172C39.8394 64.0172 40.4174 63.4476 40.4174 62.7449C40.4174 62.0423 39.8394 61.4727 39.1263 61.4727C38.4132 61.4727 37.8352 62.0423 37.8352 62.7449C37.8352 63.4476 38.4132 64.0172 39.1263 64.0172Z" fill="#F8D2EA"/>
<path d="M26.8737 64.0172C27.5868 64.0172 28.1648 63.4476 28.1648 62.7449C28.1648 62.0423 27.5868 61.4727 26.8737 61.4727C26.1607 61.4727 25.5826 62.0423 25.5826 62.7449C25.5826 63.4476 26.1607 64.0172 26.8737 64.0172Z" fill="#F8D2EA"/>
</g>
<defs>
<clipPath id="clip0_2157_7433">
<rect width="66" height="67" fill="white"/>
</clipPath>
</defs>
</svg>
