<svg width="62" height="53" viewBox="0 0 62 53" fill="none" xmlns="http://www.w3.org/2000/svg">
<path d="M16.5659 36.0662H40.0203M25.4679 39.2226V42.0667M31.1182 39.2226V42.0667M24.125 20.3856C25.1723 19.28 26.6503 18.5964 28.2973 18.5964C29.9443 18.5964 31.473 19.3138 32.5287 20.4531M21.4476 17.6512C23.1875 15.8704 25.6115 14.7733 28.2889 14.7733C30.9662 14.7733 33.3226 15.8451 35.0541 17.5752M18.8885 15.0349C21.2872 12.6128 24.6149 11.1105 28.2889 11.1105C31.9628 11.1105 35.1807 12.5537 37.5625 14.8999M61 33.6356C61 23.7951 53.2551 15.786 43.5253 15.3134C41.6757 7.11865 34.3615 1 25.603 1C15.451 1 7.21622 9.22853 7.21622 19.3728C7.21622 21.4236 7.57095 23.3985 8.1875 25.2383C3.89696 27.7195 1 32.3444 1 37.6528C1 45.1134 6.70101 51.2404 13.9899 51.9325V52H43.3733V51.9578C53.1706 51.5527 60.9916 43.5098 60.9916 33.6272L61 33.6356ZM18.5591 22.8162H38.027C39.2352 22.8162 40.2145 23.7948 40.2145 25.002V36.8848C40.2145 38.092 39.2352 39.0707 38.027 39.0707H18.5591C17.351 39.0707 16.3716 38.092 16.3716 36.8848V25.002C16.3716 23.7948 17.351 22.8162 18.5591 22.8162ZM36.4054 44.3876V43.5183C36.4054 42.8009 35.8226 42.2186 35.1047 42.2186H21.473C20.7551 42.2186 20.1723 42.8009 20.1723 43.5183V44.3876H36.4054Z" stroke="#EADDEA" stroke-width="1.8" stroke-linecap="round" stroke-linejoin="round"/>
</svg>
