<svg width="64" height="65" viewBox="0 0 64 65" fill="none" xmlns="http://www.w3.org/2000/svg">
<g clip-path="url(#clip0_2040_5042)">
<path d="M52.7571 18.0257V12.3528L55.1131 13.5426C55.1131 13.5426 54.6847 8.52838 51.4077 5.66005C48.1307 2.79172 43.2151 2.94045 43.2151 2.94045L44.1789 0.932617H37.1965C37.1965 0.932617 33.2448 0.932617 31.5634 2.98294C31.5634 2.98294 22.6962 2.31367 20.7685 13.5426L23.0281 12.544V17.9939M33.5875 8.33716C33.5875 8.33716 30.7924 10.1963 31.8097 13.9782C32.8271 17.7602 37.5392 17.8026 39.4669 17.8026H52.4786M34.8405 28.7448C34.8405 28.7448 36.329 30.2215 37.9676 30.2215C39.6061 30.2215 41.0947 28.5961 41.0947 28.5961M31.6598 13.2133C31.6598 13.2133 27.3226 13.9251 27.3226 17.7495V26.2589C27.3226 26.2589 27.5582 32.5692 33.7267 34.7152V36.6699L27.4618 37.7641M37.8712 12.5015C37.8712 12.5015 38.5459 17.7602 43.2686 17.7602M24.2918 20.9578C24.2918 20.9578 26.937 22.5301 27.1833 24.0599M51.6005 21.0959C51.6005 21.0959 48.8053 22.7638 48.5162 24.2936M33.7267 36.6805L42.2084 44.9987L45.9674 37.3923M29.7321 37.3923L33.6303 44.8924L42.2513 36.4787V34.6196C48.1735 32.4736 48.559 26.397 48.559 26.397V17.6539C48.559 14.2119 46.5885 12.544 46.5885 12.544M35.9435 17.6114V23.7305C35.9435 23.7305 35.9007 26.2164 33.3412 26.2164H24.9558C24.9558 26.2164 21.0576 25.834 21.0576 21.967C21.0576 18.1001 25.3735 17.6858 25.3735 17.6858H34.9368M40.0237 17.8876V23.5499C40.0237 23.5499 40.0559 26.1527 42.0692 26.1527H50.6902C50.6902 26.1527 54.9846 25.7277 54.9846 22.052C54.9846 18.3763 51.8253 17.792 51.4077 17.792M49.555 45.2324L42.9045 56.5145L39.0064 45.0199M39.0064 45.0199H36.9288L34.0908 53.4974M39.0064 45.0199L40.1523 43.4052M42.262 36.4893L46.0959 37.2542C46.0959 37.2542 50.6045 37.5835 52.4572 38.5184C54.3099 39.4532 56.3339 41.7904 56.8373 44.1382C57.3406 46.4859 57.1264 48.2707 55.6057 51.139C54.085 54.0073 50.5724 60.5514 50.5724 60.5514C50.5724 60.5514 48.6447 64.0678 45.3891 64.0678H28.6291C28.6291 64.0678 27.2797 63.9509 27.2797 62.7292V57.8105H42.2834L44.2539 59.7653M29.6572 57.7787C29.6572 57.7787 27.3226 57.6618 27.3226 55.484V38.444C27.3226 38.444 27.3654 36.6486 25.9303 36.6486H7.34978C7.34978 36.6486 6.05396 36.7443 6.05396 38.1253V55.4521C6.05396 55.4521 6.32169 57.7893 8.55992 57.7893H28.265M6.24672 53.5293H36.5004C36.5004 53.5293 38.0639 53.5718 38.0639 54.7935V57.7043M31.542 57.8743V63.8234M18.8194 57.853C18.8194 57.853 18.5517 62.0068 21.6895 62.0068H27.1084M36.8645 44.9243L35.7293 43.3308M18.8301 45.1686C18.8301 46.3655 17.852 47.3358 16.6454 47.3358C15.4388 47.3358 14.4607 46.3655 14.4607 45.1686C14.4607 43.9717 15.4388 43.0015 16.6454 43.0015C17.852 43.0015 18.8301 43.9717 18.8301 45.1686Z" stroke="#EADDEA" stroke-width="1.8" stroke-linecap="round" stroke-linejoin="round"/>
</g>
<defs>
<clipPath id="clip0_2040_5042">
<rect width="64" height="64" fill="white" transform="translate(0 0.5)"/>
</clipPath>
</defs>
</svg>
