<svg width="48" height="61" viewBox="0 0 48 61" fill="none" xmlns="http://www.w3.org/2000/svg">
<path d="M14.2426 36.5435C10.7722 33.6653 8.55767 29.2837 8.55767 24.3809C8.55767 15.716 15.4688 8.6904 23.9926 8.6904C32.5163 8.6904 39.4275 15.716 39.4275 24.3809C39.4275 29.3971 37.1163 33.8617 33.5121 36.7324M33.2074 46.2283C34.6565 45.6013 36.0239 44.8232 37.3021 43.9242L37.1089 40.0715C37.9486 39.3462 38.7215 38.553 39.4349 37.7069L43.2249 37.9033C45.0827 35.1762 46.3981 32.0335 47 28.6341L44.1835 26.0504C44.2281 25.499 44.2578 24.94 44.2578 24.3809C44.2578 23.8219 44.2281 23.2629 44.1835 22.7114L47 20.1278C46.3981 16.7283 45.0827 13.5857 43.2249 10.8585L39.4349 11.0549C38.7215 10.2013 37.9412 9.41562 37.1089 8.6904L37.3021 4.83764C34.6194 2.94904 31.5279 1.61191 28.1838 1L25.6423 3.86312C25.0998 3.8178 24.5499 3.78758 24 3.78758C23.4501 3.78758 22.9002 3.8178 22.3577 3.86312L19.8162 1C16.4721 1.61191 13.3806 2.94904 10.6979 4.83764L10.8911 8.6904C10.0514 9.41562 9.27851 10.2088 8.56511 11.0549L4.77512 10.8585C2.91729 13.5857 1.60194 16.7283 1 20.1278L3.81648 22.7114C3.77189 23.2629 3.74216 23.8219 3.74216 24.3809C3.74216 24.94 3.77189 25.499 3.81648 26.0504L1 28.6341C1.60194 32.026 2.91729 35.1762 4.77512 37.9033L8.56511 37.7069C9.27851 38.5606 10.0588 39.3462 10.8911 40.0715L10.6979 43.9242C12.043 44.8685 13.4847 45.6768 15.0081 46.3265M31.1192 21.5329V26.7983C31.1192 27.5236 30.5396 28.1128 29.8262 28.1128H18.5008C17.7874 28.1128 17.2078 27.5236 17.2078 26.7983V21.3969M25.5903 23.3158L30.7551 21.5631C31.4834 21.2458 31.8921 20.8077 31.8921 20.1731V18.1259C31.8921 17.4913 31.3793 16.97 30.7551 16.97H17.5868C16.9625 16.97 16.4498 17.4913 16.4498 18.1259V20.1731C16.4498 20.8077 16.8659 21.3138 17.5868 21.5631L22.8036 23.3158M21.1315 16.9625V15.9729C21.1315 15.2174 21.7409 14.598 22.484 14.598H25.8504C26.5935 14.598 27.2029 15.2174 27.2029 15.9729V16.902M21.5477 46.674L23.9703 50.0131L26.2145 46.8024M26.9205 59.7129L24.5276 49.5447M21.674 59.9622L23.8514 49.5447M25.7538 53.6921L29.1871 47.7392M22.8036 53.8809L18.4785 47.641M25.5383 23.3158C25.5383 24.0793 24.9294 24.6982 24.1784 24.6982C23.4273 24.6982 22.8184 24.0793 22.8184 23.3158C22.8184 22.5522 23.4273 21.9333 24.1784 21.9333C24.9294 21.9333 25.5383 22.5522 25.5383 23.3158ZM31.3942 38.9307C31.3942 43.0737 28.0903 46.4323 24.0149 46.4323C19.9394 46.4323 16.6355 43.0737 16.6355 38.9307C16.6355 34.7877 19.9394 31.4292 24.0149 31.4292C28.0903 31.4292 31.3942 34.7877 31.3942 38.9307ZM38.2459 60C38.2459 52.5816 31.8698 46.5607 24.0074 46.5607C16.1451 46.5607 9.76898 52.574 9.76898 60H38.2459Z" stroke="#F8D2EA" stroke-width="1.99" stroke-linecap="round" stroke-linejoin="round"/>
</svg>
