<svg width="56" height="63" viewBox="0 0 56 63" fill="none" xmlns="http://www.w3.org/2000/svg">
<path d="M38.1715 46.4468C36.1751 55.7309 32.3683 62 28.0031 62C23.638 62 19.7381 55.5771 17.7586 46.1052M17.7586 16.8607C19.7466 7.40577 23.5872 1 27.9947 1C32.4021 1 36.2512 7.41431 38.2307 16.8692M22.7667 46.8311C12.5221 50.5294 3.9526 50.5892 1.6093 46.3528C-0.539432 42.4581 3.14048 35.9499 10.3565 29.5954M33.4596 16.092C43.6026 12.4791 52.0621 12.4535 54.3885 16.6557C56.5457 20.5589 52.8489 27.0843 45.6075 33.4474M45.599 29.8003C52.7643 36.283 56.3765 42.8766 54.1601 46.7457C51.9437 50.6148 43.8479 50.7686 34.1786 47.3351M10.2042 33.0203C3.16586 26.5974 -0.361781 20.0892 1.83771 16.2543C4.03719 12.4194 12.0146 12.2314 21.5739 15.5795M38.3492 31.5512C38.3492 37.3061 33.7285 41.9713 28.0285 41.9713C22.3286 41.9713 17.7078 37.3061 17.7078 31.5512C17.7078 25.7964 22.3286 21.1312 28.0285 21.1312C33.7285 21.1312 38.3492 25.7964 38.3492 31.5512ZM43.1119 27.4259L40.684 26.6914C40.4218 25.9996 40.1088 25.3248 39.7366 24.6843L40.7094 22.3184C39.432 20.5248 37.7824 18.9959 35.8113 17.86L33.578 19.0728C33.2481 18.9191 32.9097 18.7824 32.5544 18.6543C32.1991 18.5262 31.8522 18.4237 31.5054 18.3297L30.5325 15.9639C28.2908 15.5966 26.049 15.7333 23.9425 16.3055L23.215 18.7568C22.5298 19.0216 21.8615 19.3376 21.227 19.7134L18.8837 18.7312C17.1072 20.0209 15.593 21.6864 14.4678 23.6764L15.6691 25.9313C15.5168 26.2644 15.3815 26.606 15.2546 26.9647C15.1277 27.3234 15.0262 27.6736 14.9331 28.0238L12.5898 29.006C12.226 31.2694 12.3614 33.5328 12.9282 35.6595L15.3561 36.394C15.6183 37.0858 15.9313 37.7606 16.3036 38.4011L15.3307 40.767C16.6081 42.5606 18.2577 44.0895 20.2288 45.2254L22.4621 44.0126C22.792 44.1663 23.1304 44.303 23.4857 44.4311C23.841 44.5592 24.1879 44.6617 24.5347 44.7557L25.5076 47.1215C27.7494 47.4888 29.9911 47.3521 32.0976 46.7799L32.8251 44.3286C33.5103 44.0638 34.1786 43.7478 34.8131 43.372L37.1564 44.3542C38.9329 43.0645 40.4472 41.399 41.5723 39.409L40.371 37.1542C40.5233 36.8211 40.6586 36.4794 40.7855 36.1207C40.9124 35.762 41.0139 35.4118 41.107 35.0616L43.4503 34.0794C43.8141 31.816 43.6787 29.5526 43.1119 27.4259ZM34.8554 27.8786C34.1786 27.1099 32.9943 27.0416 32.2329 27.7249L26.0151 33.3192L23.4942 30.458C22.8174 29.6893 21.6331 29.621 20.8717 30.3043C20.1104 30.9875 20.0427 32.1833 20.7195 32.952L24.4417 37.1712C25.0338 37.846 26.0151 37.9826 26.7596 37.547C26.9203 37.4702 27.081 37.3762 27.2249 37.2481L34.7031 30.5263C35.4645 29.843 35.5321 28.6473 34.8554 27.8786Z" stroke="#F8D2EA" stroke-width="1.78" stroke-linecap="round" stroke-linejoin="round"/>
</svg>
