<svg width="58" height="65" viewBox="0 0 58 65" fill="none" xmlns="http://www.w3.org/2000/svg">
<path d="M39.028 55.5273H26.0413M26.0413 15.959H50.5726V46.4307M19.2622 55.4482V31.2959H7.46255V55.4482M7.30429 24.9941H19.0248M7.30429 21.4873H19.0248M7.30429 17.8223H19.0248M32.3104 30.8301H44.0309M32.3104 27.1914H44.0309M32.3104 23.5615H44.0309M32.3104 41.7373H44.0309M32.3104 38.0986H44.0309M32.3104 34.4687H44.0309M48.1283 55.0791V50.7021M48.1898 55.0967H50.9595M48.0755 47.793V48.7158M48.0755 61.4336V62.3564M55.3646 55.0791H54.4414M41.7097 55.0791H40.7865M53.228 49.9287L52.5773 50.5791M43.5737 59.5703L42.9231 60.2295M53.228 60.2295L52.5773 59.5703M43.5737 50.5791L42.9231 49.9287M25.8039 55.5273H1V1L25.8039 11.5996V55.5273ZM57 55.0791C57 60.006 53.0044 64 48.0755 64C43.1467 64 39.151 60.006 39.151 55.0791C39.151 50.1522 43.1467 46.1582 48.0755 46.1582C53.0044 46.1582 57 50.1522 57 55.0791Z" stroke="#EADDEA" stroke-width="1.8" stroke-linecap="round" stroke-linejoin="round"/>
</svg>
