<svg width="52" height="53" viewBox="0 0 52 53" fill="none" xmlns="http://www.w3.org/2000/svg">
<path d="M33.591 14.6182V10.2488M33.6516 14.6358H36.3813M33.539 7.33873V8.26185M33.539 20.9833V21.9064M40.7227 14.6182H39.8128M27.2652 14.6182H26.3553M38.617 9.4663L37.9757 10.1257M29.1023 19.1195L28.461 19.77M38.617 19.77L37.9757 19.1195M29.1023 10.1257L28.461 9.4663M6.71057 32.1838V51.2175C6.71057 51.6395 6.37262 51.9912 5.94801 51.9912H3.72964C3.31369 51.9912 2.96707 51.6483 2.96707 51.2175V32.1838M48.9203 32.1222V50.4878C48.9203 51.3143 48.253 52 47.4298 52H36.078C35.2634 52 34.5875 51.323 34.5875 50.4878V32.1222M34.6828 41.8369H48.7816M39.6135 36.9664H43.7903M39.6135 46.7163H43.7903M1.15598 21.0184H19.6828M4.00693 27.6913V26.9967C4.00693 26.4253 4.4662 25.9593 5.02946 25.9593H15.792C16.3553 25.9593 16.8146 26.4253 16.8146 26.9967V27.6913M8.19237 23.5504V25.8274M12.6464 23.5504V25.8274M7.12652 8.43768C7.94974 7.54973 9.11959 7.00465 10.4194 7.00465C11.7192 7.00465 12.9324 7.57611 13.7556 8.49043M5.01213 6.24858C6.38128 4.82434 8.29636 3.93639 10.4194 3.93639C12.5425 3.93639 14.3969 4.79797 15.766 6.17825M2.99307 4.14739C4.88215 2.20445 7.51647 1 10.4194 1C13.3224 1 15.8614 2.16049 17.7504 4.04189M42.3345 14.6182C42.3345 19.5465 38.3966 23.5416 33.539 23.5416C28.6814 23.5416 24.7435 19.5465 24.7435 14.6182C24.7435 9.68988 28.6814 5.69471 33.539 5.69471C38.3966 5.69471 42.3345 9.68988 42.3345 14.6182ZM2.34315 27.9814H49.6568C50.3986 27.9814 51 28.5915 51 29.3441V30.698C51 31.4506 50.3986 32.0607 49.6568 32.0607H2.34315C1.60135 32.0607 1 31.4506 1 30.698V29.3441C1 28.5915 1.60135 27.9814 2.34315 27.9814ZM2.72444 10.3806H18.1144C19.0668 10.3806 19.8388 11.1639 19.8388 12.1302V21.669C19.8388 22.6353 19.0668 23.4185 18.1144 23.4185H2.72444C1.77206 23.4185 1 22.6353 1 21.669V12.1302C1 11.1639 1.77206 10.3806 2.72444 10.3806Z" stroke="#EADDEA" stroke-width="1.8" stroke-linecap="round" stroke-linejoin="round"/>
</svg>
