<svg width="24" height="25" viewBox="0 0 24 25" fill="none" xmlns="http://www.w3.org/2000/svg">
<path fill-rule="evenodd" clip-rule="evenodd" d="M18.2975 6.18352C17.9186 6.25092 17.3813 6.42722 16.5212 6.71395L10.0302 8.87761C9.20279 9.15341 8.61902 9.34832 8.19912 9.51215C7.99145 9.59318 7.84682 9.65791 7.74624 9.71097C7.66106 9.75591 7.63044 9.78066 7.62861 9.78193C7.22275 10.1748 7.22275 10.8259 7.62861 11.2188C7.63043 11.22 7.66106 11.2448 7.74624 11.2897C7.84681 11.3428 7.99145 11.4075 8.19912 11.4886C8.61902 11.6524 9.20279 11.8473 10.0302 12.1231C10.0492 12.1294 10.068 12.1357 10.0867 12.1419C10.3601 12.2328 10.6001 12.3127 10.821 12.4295C11.3535 12.7111 11.7889 13.1465 12.0705 13.679C12.1874 13.8999 12.2672 14.14 12.3581 14.4134C12.3643 14.432 12.3706 14.4509 12.3769 14.4698C12.6527 15.2972 12.8476 15.881 13.0115 16.3009C13.0925 16.5086 13.1572 16.6532 13.2103 16.7538C13.2552 16.839 13.28 16.8696 13.2812 16.8714C13.6741 17.2773 14.3252 17.2773 14.7181 16.8714C14.7194 16.8696 14.7441 16.839 14.7891 16.7538C14.8421 16.6532 14.9068 16.5086 14.9879 16.3009C15.1517 15.881 15.3466 15.2972 15.6224 14.4698L17.7861 7.97886C18.0728 7.11869 18.2491 6.58146 18.3165 6.20256C18.3179 6.19467 18.3192 6.18699 18.3205 6.17953C18.313 6.18078 18.3053 6.18211 18.2975 6.18352ZM18.5564 6.1604C18.5562 6.16058 18.5529 6.16032 18.5472 6.15905C18.5538 6.15959 18.5566 6.16022 18.5564 6.1604ZM18.341 5.95282C18.3397 5.94708 18.3394 5.94379 18.3396 5.94359C18.3398 5.94338 18.3404 5.94624 18.341 5.95282ZM17.9472 4.21443C18.4982 4.11641 19.2527 4.08722 19.8327 4.66728C20.4128 5.24734 20.3836 6.00185 20.2856 6.55284C20.1893 7.09427 19.9628 7.77339 19.7073 8.53968L19.6834 8.61132L17.5198 15.1023L17.5104 15.1305C17.2461 15.9233 17.0354 16.5553 16.8511 17.0279C16.6778 17.4721 16.4723 17.9324 16.1628 18.2545C14.9823 19.4829 13.017 19.4829 11.8365 18.2545C11.5271 17.9324 11.3216 17.4721 11.1483 17.0279C10.9639 16.5553 10.7533 15.9234 10.489 15.1306L10.4796 15.1023C10.3592 14.7411 10.332 14.6698 10.3025 14.614C10.2086 14.4365 10.0635 14.2914 9.88603 14.1975C9.83021 14.168 9.75892 14.1409 9.39772 14.0205L9.36939 14.011C8.57661 13.7468 7.9447 13.5361 7.47215 13.3518C7.02797 13.1785 6.5676 12.973 6.24555 12.6635C5.01711 11.483 5.01711 9.5177 6.24555 8.33723C6.5676 8.02775 7.02797 7.82226 7.47215 7.64895C7.94471 7.46457 8.57665 7.25393 9.36948 6.98966L9.39772 6.98024L15.8887 4.81658C15.9127 4.8086 15.9365 4.80064 15.9603 4.79271C16.7266 4.53719 17.4057 4.31075 17.9472 4.21443Z" fill="#065964"/>
</svg>
