<svg width="20" height="20" viewBox="0 0 20 20" fill="none" xmlns="http://www.w3.org/2000/svg">
<path fill-rule="evenodd" clip-rule="evenodd" d="M15.3406 4.29288C14.9348 4.36507 14.3725 4.55058 13.522 4.83408L7.1132 6.97033C6.31428 7.23664 5.74005 7.42827 5.3241 7.58984C4.88508 7.76037 4.72583 7.86086 4.67578 7.90767C4.12643 8.42146 4.12643 9.29281 4.67578 9.80659C4.72583 9.85341 4.88508 9.95389 5.3241 10.1244C5.74005 10.286 6.31428 10.4776 7.1132 10.7439C7.12871 10.7491 7.14401 10.7542 7.15912 10.7592C7.43367 10.8506 7.64385 10.9206 7.83641 11.0212C8.3251 11.2765 8.72391 11.6753 8.97923 12.164C9.07983 12.3566 9.1498 12.5668 9.24121 12.8413C9.24624 12.8564 9.25134 12.8717 9.25651 12.8872C9.52282 13.6862 9.71444 14.2604 9.87601 14.6763C10.0465 15.1154 10.147 15.2746 10.1938 15.3247C10.7076 15.874 11.579 15.874 12.0928 15.3247C12.1396 15.2746 12.2401 15.1154 12.4106 14.6763C12.5722 14.2604 12.7638 13.6862 13.0301 12.8872L15.1664 6.47846C15.4499 5.62797 15.6354 5.06564 15.7076 4.65983C15.7425 4.46316 15.7404 4.35472 15.7314 4.29992C15.7293 4.28725 15.7272 4.27921 15.7257 4.27472C15.7212 4.27328 15.7132 4.27112 15.7005 4.26905C15.6457 4.26009 15.5373 4.2579 15.3406 4.29288ZM15.0954 2.91452C15.6217 2.8209 16.2447 2.81255 16.7163 3.28414C17.1879 3.75574 17.1795 4.37876 17.0859 4.90503C16.9935 5.42441 16.7732 6.08535 16.5126 6.86697L16.4945 6.92118L14.3583 13.33L14.3517 13.3496C14.0934 14.1247 13.8911 14.7315 13.7156 15.1833C13.5476 15.6157 13.3669 16.0119 13.1153 16.281C12.0482 17.4219 10.2384 17.4219 9.17135 16.281C8.91969 16.0119 8.73899 15.6157 8.57101 15.1833C8.39555 14.7316 8.19328 14.1247 7.93495 13.3497L7.92835 13.33C7.81474 12.9891 7.78044 12.8928 7.73837 12.8123C7.61544 12.577 7.42342 12.385 7.18812 12.2621C7.10759 12.22 7.01131 12.1857 6.67048 12.0721L6.65077 12.0655C5.87574 11.8072 5.26889 11.6049 4.81719 11.4294C4.38474 11.2615 3.98856 11.0807 3.71948 10.8291C2.57853 9.762 2.57853 7.95226 3.71948 6.88518C3.98856 6.63352 4.38474 6.45281 4.81719 6.28483C5.26889 6.10937 5.87574 5.90709 6.65076 5.64875L6.67048 5.64218L13.0793 3.50592L13.1334 3.48787C13.9151 3.22728 14.576 3.00692 15.0954 2.91452Z" fill="#CDFDF3"/>
</svg>
