<svg width="32" height="32" viewBox="0 0 32 32" fill="none" xmlns="http://www.w3.org/2000/svg">
<rect width="32" height="32" rx="6" fill="#045480"/>
<path d="M8.26748 13.3117H11.5907V24H8.26748V13.3117ZM9.92908 8C10.9909 8 11.8501 8.86091 11.8501 9.92487C11.8501 10.9888 10.9909 11.8497 9.92908 11.8497C8.86727 11.8497 8 10.9888 8 9.92487C8 8.86091 8.85917 8 9.92908 8Z" fill="#CDFDF3"/>
<path d="M16.843 13.3117V14.7736H16.8835C17.3293 13.9289 18.4073 13.0437 20.0203 13.0437C23.3759 13.0437 24 15.2528 24 18.136V24H20.6849V18.802C20.6849 17.5594 20.6606 15.9675 18.9585 15.9675C17.2563 15.9675 16.9726 17.3157 16.9726 18.7127V24H13.6575V13.3117H16.843Z" fill="#CDFDF3"/>
</svg>
