<svg width="28" height="24" viewBox="0 0 28 24" fill="none" xmlns="http://www.w3.org/2000/svg">
<path fill-rule="evenodd" clip-rule="evenodd" d="M12.0009 0.000181462C12.0369 0.000270869 12.0727 0.000359829 12.1083 0.000359829H15.8917C15.9273 0.000359829 15.9631 0.000270869 15.9991 0.000181462C16.4257 -0.00087819 16.8811 -0.00200919 17.3039 0.143829C17.6717 0.270701 18.0067 0.477757 18.2847 0.750012C18.6042 1.06297 18.8069 1.47077 18.9967 1.85282C19.0127 1.88507 19.0287 1.91713 19.0446 1.94893L19.5703 3.00036L21.6207 3.00036C22.4219 3.00034 23.0907 3.00033 23.637 3.04497C24.2068 3.09153 24.7418 3.19219 25.2477 3.44996C26.0239 3.84544 26.6549 4.47648 27.0504 5.25265C27.3082 5.75854 27.4088 6.29353 27.4554 6.86336C27.5 7.4097 27.5 8.07846 27.5 8.87968V18.121C27.5 18.9223 27.5 19.591 27.4554 20.1374C27.4088 20.7072 27.3082 21.2422 27.0504 21.7481C26.6549 22.5242 26.0239 23.1553 25.2477 23.5508C24.7418 23.8085 24.2068 23.9092 23.637 23.9558C23.0907 24.0004 22.4219 24.0004 21.6207 24.0004H6.37932C5.5781 24.0004 4.90934 24.0004 4.363 23.9558C3.79317 23.9092 3.25818 23.8085 2.75229 23.5508C1.97612 23.1553 1.34508 22.5242 0.949599 21.7481C0.691833 21.2422 0.591167 20.7072 0.54461 20.1374C0.499971 19.591 0.499985 18.9222 0.500001 18.121V8.87971C0.499985 8.07848 0.499971 7.40971 0.54461 6.86336C0.591167 6.29353 0.691833 5.75854 0.949599 5.25265C1.34508 4.47648 1.97612 3.84544 2.75229 3.44996C3.25818 3.19219 3.79317 3.09153 4.363 3.04497C4.90935 3.00033 5.57812 3.00034 6.37935 3.00036L8.42971 3.00036L8.95543 1.94893C8.97133 1.91712 8.98726 1.88506 9.00329 1.85281C9.19312 1.47077 9.39576 1.06297 9.71529 0.750012C9.99327 0.477757 10.3283 0.270701 10.6961 0.143829C11.1189 -0.00200919 11.5743 -0.00087819 12.0009 0.000181462ZM11.4266 2.27181C11.4265 2.2718 11.4272 2.27158 11.4288 2.27119L11.4266 2.27181ZM11.5429 2.25843C11.4682 2.26308 11.437 2.26921 11.4288 2.27119C11.3769 2.28924 11.3297 2.31844 11.2903 2.3568C11.2849 2.36323 11.2655 2.38831 11.228 2.45304C11.167 2.55813 11.0944 2.70218 10.9679 2.95516L10.1312 4.62848C9.94067 5.00961 9.55112 5.25036 9.125 5.25036H6.425C5.56636 5.25036 4.99004 5.25124 4.54622 5.2875C4.11553 5.32268 3.90961 5.38551 3.77377 5.45472C3.42096 5.63449 3.13413 5.92132 2.95436 6.27413C2.88515 6.40997 2.82233 6.61589 2.78714 7.04658C2.75088 7.49039 2.75 8.06672 2.75 8.92536V18.0754C2.75 18.934 2.75088 19.5103 2.78714 19.9541C2.82233 20.3848 2.88515 20.5908 2.95436 20.7266C3.13413 21.0794 3.42096 21.3662 3.77377 21.546C3.90961 21.6152 4.11553 21.678 4.54622 21.7132C4.99004 21.7495 5.56636 21.7504 6.425 21.7504H21.575C22.4336 21.7504 23.01 21.7495 23.4538 21.7132C23.8845 21.678 24.0904 21.6152 24.2262 21.546C24.579 21.3662 24.8659 21.0794 25.0456 20.7266C25.1149 20.5908 25.1777 20.3848 25.2129 19.9541C25.2491 19.5103 25.25 18.934 25.25 18.0754V8.92536C25.25 8.06672 25.2491 7.4904 25.2129 7.04658C25.1777 6.61589 25.1149 6.40997 25.0456 6.27413C24.8659 5.92132 24.579 5.63449 24.2262 5.45472C24.0904 5.38551 23.8845 5.32268 23.4538 5.2875C23.01 5.25124 22.4336 5.25036 21.575 5.25036H18.875C18.4489 5.25036 18.0593 5.00961 17.8688 4.62848L17.0321 2.95516C16.9056 2.70219 16.833 2.55813 16.772 2.45304C16.7345 2.3883 16.7151 2.36322 16.7097 2.35679C16.6703 2.31844 16.623 2.28921 16.5711 2.27116C16.5726 2.27164 16.5734 2.27183 16.5734 2.27181M16.5711 2.27116C16.5629 2.26919 16.5318 2.26309 16.4571 2.25843C16.3359 2.25086 16.1746 2.25036 15.8917 2.25036H12.1083C11.8254 2.25036 11.6641 2.25086 11.5429 2.25843M16.7081 2.35501C16.708 2.35496 16.7086 2.35556 16.7097 2.35679L16.7081 2.35501ZM11.2919 2.35501C11.2919 2.35506 11.2913 2.35578 11.2903 2.3568L11.2919 2.35501ZM14 9.75036C11.9289 9.75036 10.25 11.4293 10.25 13.5004C10.25 15.5714 11.9289 17.2504 14 17.2504C16.0711 17.2504 17.75 15.5714 17.75 13.5004C17.75 11.4293 16.0711 9.75036 14 9.75036ZM8 13.5004C8 10.1867 10.6863 7.50036 14 7.50036C17.3137 7.50036 20 10.1867 20 13.5004C20 16.8141 17.3137 19.5004 14 19.5004C10.6863 19.5004 8 16.8141 8 13.5004Z" fill="#47586E"/>
</svg>
