<svg width="64" height="59" viewBox="0 0 64 59" fill="none" xmlns="http://www.w3.org/2000/svg">
<path d="M32 43.1154C38.3118 43.1154 43.4286 38.0355 43.4286 31.7692C43.4286 25.5029 38.3118 20.4231 32 20.4231C25.6882 20.4231 20.5714 25.5029 20.5714 31.7692C20.5714 38.0355 25.6882 43.1154 32 43.1154Z" fill="#290A29"/>
<path d="M57.1429 9.07692H51.6987L47.7589 1.2542C47.569 0.877283 47.2771 0.560302 46.916 0.338781C46.5549 0.11726 46.1388 -4.88762e-05 45.7143 1.52766e-08H18.2857C17.8612 -4.88762e-05 17.4451 0.11726 17.084 0.338781C16.7229 0.560302 16.431 0.877283 16.2411 1.2542L12.3013 9.07692H6.85714C5.03913 9.07891 3.29615 9.79678 2.01062 11.073C0.725085 12.3493 0.00199652 14.0797 0 15.8846V52.1923C0.00199652 53.9972 0.725085 55.7276 2.01062 57.0039C3.29615 58.2801 5.03913 58.998 6.85714 59H57.1429C58.9609 58.998 60.7039 58.2801 61.9894 57.0039C63.2749 55.7276 63.998 53.9972 64 52.1923V15.8846C63.998 14.0797 63.2749 12.3493 61.9894 11.073C60.7039 9.79678 58.9609 9.07891 57.1429 9.07692ZM32 47.6538C28.8355 47.6538 25.7421 46.7222 23.1109 44.9768C20.4797 43.2314 18.4289 40.7505 17.2179 37.848C16.0069 34.9455 15.6901 31.7516 16.3074 28.6703C16.9248 25.589 18.4487 22.7586 20.6863 20.5371C22.9239 18.3156 25.7749 16.8027 28.8786 16.1898C31.9823 15.5769 35.1993 15.8915 38.1229 17.0938C41.0466 18.296 43.5454 20.332 45.3035 22.9442C47.0616 25.5564 48 28.6276 48 31.7692C47.9951 35.9806 46.3078 40.0181 43.3083 42.996C40.3088 45.9739 36.242 47.649 32 47.6538Z" fill="#290A29"/>
</svg>
