<svg width="32" height="32" viewBox="0 0 32 32" fill="none" xmlns="http://www.w3.org/2000/svg">
<rect x="1" y="1" width="30" height="30" rx="15" stroke="currentColor" stroke-width="2"/>
<path fill-rule="evenodd" clip-rule="evenodd" d="M12 9.75C12 8.23122 13.2312 7 14.75 7H17.25C18.7688 7 20 8.23122 20 9.75V10H23.25C23.6642 10 24 10.3358 24 10.75C24 11.1642 23.6642 11.5 23.25 11.5H22.9595L22.3538 22.4025C22.2728 23.8598 21.0675 25 19.608 25H12.392C10.9325 25 9.72717 23.8598 9.64621 22.4025L9.04051 11.5H8.75C8.33579 11.5 8 11.1642 8 10.75C8 10.3358 8.33579 10 8.75 10H12V9.75ZM10.5428 11.5L11.1439 22.3193C11.1807 22.9817 11.7286 23.5 12.392 23.5H19.608C20.2714 23.5 20.8193 22.9817 20.8561 22.3193L21.4572 11.5H10.5428ZM18.5 10H13.5V9.75C13.5 9.05964 14.0596 8.5 14.75 8.5H17.25C17.9404 8.5 18.5 9.05964 18.5 9.75V10ZM13.75 14C14.1642 14 14.5 14.3358 14.5 14.75V20.25C14.5 20.6642 14.1642 21 13.75 21C13.3358 21 13 20.6642 13 20.25V14.75C13 14.3358 13.3358 14 13.75 14ZM18.25 14C18.6642 14 19 14.3358 19 14.75V20.25C19 20.6642 18.6642 21 18.25 21C17.8358 21 17.5 20.6642 17.5 20.25V14.75C17.5 14.3358 17.8358 14 18.25 14Z" fill="currentColor"/>
</svg>
