<svg width="15" height="3" viewBox="0 0 15 3" fill="none" xmlns="http://www.w3.org/2000/svg">
<path fill-rule="evenodd" clip-rule="evenodd" d="M11.5 1.5C11.5 0.671573 12.1716 -1.4356e-08 13 2.18557e-08C13.8284 5.80674e-08 14.5 0.671574 14.5 1.5C14.5 2.32843 13.8284 3 13 3C12.1716 3 11.5 2.32843 11.5 1.5ZM5.75 1.5C5.75 0.671573 6.42157 -3.09408e-07 7.25 -2.73196e-07C8.07843 -2.36984e-07 8.75 0.671573 8.75 1.5C8.75 2.32843 8.07843 3 7.25 3C6.42157 3 5.75 2.32843 5.75 1.5ZM1.5 -5.68248e-07C0.671573 -6.0446e-07 -2.93554e-08 0.671572 -6.55671e-08 1.5C-1.01779e-07 2.32843 0.671573 3 1.5 3C2.32843 3 3 2.32843 3 1.5C3 0.671572 2.32843 -5.32036e-07 1.5 -5.68248e-07Z" fill="#333333"/>
</svg>
