<svg width="21" height="20" viewBox="0 0 21 20" fill="none" xmlns="http://www.w3.org/2000/svg">
<path fill-rule="evenodd" clip-rule="evenodd" d="M11.0881 3.25696C11.5728 2.77229 12.2301 2.5 12.9156 2.5C14.3429 2.5 15.5 3.65708 15.5 5.08442C15.5 5.76985 15.2277 6.42721 14.743 6.91188L6.31357 15.3413C6.21199 15.4429 6.07421 15.5 5.93056 15.5H3.04167C2.74251 15.5 2.5 15.2575 2.5 14.9583V12.0694C2.5 11.9258 2.55707 11.788 2.65865 11.6864L11.0881 3.25696ZM12.9156 3.58333C12.5175 3.58333 12.1357 3.74148 11.8542 4.02299L11.5716 4.30556L13.6944 6.42841L13.977 6.14585C14.2585 5.86434 14.4167 5.48253 14.4167 5.08442C14.4167 4.25539 13.7446 3.58333 12.9156 3.58333ZM12.9284 7.19444L10.8056 5.07159L3.58333 12.2938V14.4167H5.70619L12.9284 7.19444Z" fill="#023D6A"/>
<path d="M2.5 16.5H18.5V17.5H2.5V16.5Z" fill="#023D6A"/>
</svg>
