<svg width="20" height="20" viewBox="0 0 20 20" fill="none" xmlns="http://www.w3.org/2000/svg">
<path d="M5.19961 14.7832C5.37641 13.8741 5.94331 13.0237 6.83116 12.4004C7.7203 11.7762 8.86199 11.4303 10.0494 11.4402C11.2368 11.4501 12.3692 11.8149 13.2422 12.453C14.1137 13.09 14.6594 13.9484 14.8143 14.8594M12.7 7.3C12.7 8.79117 11.4912 10 10 10C8.50883 10 7.3 8.79117 7.3 7.3C7.3 5.80883 8.50883 4.6 10 4.6C11.4912 4.6 12.7 5.80883 12.7 7.3ZM2.8 19H17.2C18.1941 19 19 18.1941 19 17.2V2.8C19 1.80589 18.1941 1 17.2 1H2.8C1.80589 1 1 1.80589 1 2.8V17.2C1 18.1941 1.80589 19 2.8 19Z" stroke="#0DC6DE" stroke-width="1.4" stroke-linecap="round"/>
</svg>
