<svg width="20" height="13" viewBox="0 0 20 13" fill="none" xmlns="http://www.w3.org/2000/svg">
<path d="M9.28165 1.13283L9.53262 1.78629L9.28165 1.13283ZM1.24925 4.2178L0.998282 3.56434L0.998282 3.56434L1.24925 4.2178ZM18.7507 4.2178L18.4998 4.87126L18.7507 4.2178ZM10.7184 1.13283L10.4674 1.78629V1.78629L10.7184 1.13283ZM1.24925 4.92478L0.998281 5.57824L1.24925 4.92478ZM4.5026 6.92413C4.8635 7.06274 5.26843 6.88254 5.40704 6.52164C5.54565 6.16075 5.36544 5.75582 5.00455 5.61721L4.5026 6.92413ZM14.9955 5.61721C14.6346 5.75582 14.4544 6.16075 14.593 6.52164C14.7316 6.88254 15.1365 7.06274 15.4974 6.92413L14.9955 5.61721ZM18.7507 4.92478L18.4998 4.27132V4.27132L18.7507 4.92478ZM11.7178 7.35706C11.7178 7.74366 12.0312 8.05706 12.4178 8.05706C12.8044 8.05706 13.1178 7.74366 13.1178 7.35706H11.7178ZM4.68087 10.1428H3.98087C3.98087 10.4405 4.16911 10.7056 4.45013 10.8037L4.68087 10.1428ZM4.68087 6.42847L4.00346 6.25209C3.98846 6.30968 3.98087 6.36895 3.98087 6.42847H4.68087ZM15.3191 6.42847H16.0191C16.0191 6.36895 16.0115 6.30968 15.9965 6.25209L15.3191 6.42847ZM15.3191 10.1428L15.5499 10.8037C15.8309 10.7056 16.0191 10.4405 16.0191 10.1428H15.3191ZM10 12L9.76925 12.6609C9.91866 12.713 10.0813 12.713 10.2307 12.6609L10 12ZM9.03067 0.479369L0.998282 3.56434L1.50023 4.87126L9.53262 1.78629L9.03067 0.479369ZM19.0017 3.56434L10.9693 0.479369L10.4674 1.78629L18.4998 4.87126L19.0017 3.56434ZM0.998281 5.57824L4.5026 6.92413L5.00455 5.61721L1.50023 4.27132L0.998281 5.57824ZM15.4974 6.92413L19.0017 5.57824L18.4998 4.27132L14.9955 5.61721L15.4974 6.92413ZM18.4998 4.87126C18.2334 4.76896 18.2334 4.37362 18.4998 4.27132L19.0017 5.57824C19.9328 5.22066 19.9328 3.92192 19.0017 3.56434L18.4998 4.87126ZM0.998282 3.56434C0.0672414 3.92192 0.0672377 5.22066 0.998281 5.57824L1.50023 4.27132C1.76659 4.37362 1.76659 4.76896 1.50023 4.87126L0.998282 3.56434ZM9.53262 1.78629C9.8322 1.67124 10.1678 1.67124 10.4674 1.78629L10.9693 0.479369C10.3466 0.24021 9.65338 0.24021 9.03067 0.479369L9.53262 1.78629ZM11.7178 1.78552V7.35706H13.1178V1.78552H11.7178ZM5.38087 10.1428V6.42847H3.98087V10.1428H5.38087ZM4.68087 6.42847C5.35829 6.60485 5.35808 6.60565 5.35787 6.60644C5.3578 6.6067 5.3576 6.60748 5.35746 6.608C5.35719 6.60902 5.35692 6.61002 5.35666 6.61099C5.35613 6.61293 5.35563 6.61477 5.35514 6.61651C5.35416 6.61999 5.35326 6.62306 5.35245 6.62574C5.35083 6.6311 5.34957 6.63488 5.34877 6.63718C5.34717 6.6418 5.34741 6.64048 5.35031 6.63398C5.35605 6.62113 5.37264 6.58696 5.40698 6.53751C5.47435 6.44048 5.61834 6.2726 5.90448 6.08944C6.48032 5.72084 7.66423 5.27129 10 5.27129V3.87129C7.5002 3.87129 6.02454 4.35033 5.14972 4.91032C4.71053 5.19145 4.4314 5.48787 4.25699 5.73905C4.17044 5.86372 4.11148 5.97464 4.07188 6.06335C4.05212 6.10764 4.03725 6.14622 4.0262 6.17804C4.02068 6.19395 4.01611 6.20816 4.01237 6.22054C4.0105 6.22673 4.00883 6.23247 4.00735 6.23773C4.00661 6.24037 4.00592 6.24288 4.00527 6.24527C4.00495 6.24647 4.00463 6.24763 4.00433 6.24877C4.00418 6.24934 4.00396 6.25017 4.00389 6.25045C4.00367 6.25127 4.00346 6.25209 4.68087 6.42847ZM10 5.27129C12.3358 5.27129 13.5197 5.72084 14.0955 6.08944C14.3817 6.2726 14.5256 6.44048 14.593 6.53752C14.6274 6.58696 14.644 6.62113 14.6497 6.63398C14.6526 6.64048 14.6528 6.6418 14.6512 6.63718C14.6504 6.63488 14.6492 6.6311 14.6476 6.62574C14.6467 6.62306 14.6458 6.61999 14.6449 6.61651C14.6444 6.61477 14.6439 6.61293 14.6433 6.61099C14.6431 6.61002 14.6428 6.60902 14.6425 6.608C14.6424 6.60748 14.6422 6.6067 14.6421 6.60644C14.6419 6.60565 14.6417 6.60485 15.3191 6.42847C15.9965 6.25209 15.9963 6.25127 15.9961 6.25045C15.996 6.25017 15.9958 6.24934 15.9957 6.24877C15.9954 6.24763 15.9951 6.24647 15.9947 6.24527C15.9941 6.24288 15.9934 6.24037 15.9927 6.23773C15.9912 6.23247 15.9895 6.22673 15.9876 6.22054C15.9839 6.20816 15.9793 6.19395 15.9738 6.17804C15.9628 6.14622 15.9479 6.10764 15.9281 6.06335C15.8885 5.97464 15.8296 5.86372 15.743 5.73905C15.5686 5.48787 15.2895 5.19145 14.8503 4.91032C13.9755 4.35033 12.4998 3.87129 10 3.87129V5.27129ZM14.6191 6.42847V10.1428H16.0191V6.42847H14.6191ZM15.0884 9.48195L9.76925 11.3391L10.2307 12.6609L15.5499 10.8037L15.0884 9.48195ZM10.2307 11.3391L4.91162 9.48195L4.45013 10.8037L9.76925 12.6609L10.2307 11.3391Z" fill="#47586E"/>
</svg>
