<svg width="29" height="29" viewBox="0 0 29 29" fill="none" xmlns="http://www.w3.org/2000/svg">
<g clip-path="url(#clip0_3164_1709)">
<path d="M14.8242 0.685547C11.025 0.685547 10.5472 0.703138 9.05447 0.769982C7.56172 0.840345 6.54497 1.07606 5.65422 1.42436C4.71945 1.77674 3.87297 2.33098 3.17447 3.04798C2.46117 3.7501 1.90979 4.60097 1.55922 5.54059C1.21272 6.4342 0.976469 7.45798 0.908219 8.95319C0.841719 10.4572 0.824219 10.9357 0.824219 14.7599C0.824219 18.5806 0.841719 19.0591 0.908219 20.5595C0.978219 22.0583 1.21272 23.0803 1.55922 23.9757C1.91797 24.9009 2.39572 25.6855 3.17447 26.4683C3.95147 27.2511 4.73197 27.733 5.65247 28.0919C6.54497 28.4402 7.55997 28.6777 9.05097 28.7463C10.5455 28.8131 11.0215 28.8307 14.8242 28.8307C18.627 28.8307 19.1012 28.8131 20.5957 28.7463C22.085 28.6759 23.1052 28.4402 23.996 28.0919C24.9301 27.7393 25.776 27.1851 26.474 26.4683C27.2527 25.6855 27.7305 24.9009 28.0892 23.9757C28.434 23.0803 28.6702 22.0583 28.7402 20.5595C28.8067 19.0591 28.8242 18.5806 28.8242 14.7581C28.8242 10.9357 28.8067 10.4572 28.7402 8.95495C28.6702 7.45798 28.434 6.4342 28.0892 5.54059C27.7386 4.60097 27.1873 3.7501 26.474 3.04798C25.7755 2.33098 24.929 1.77674 23.9942 1.42436C23.1017 1.07606 22.0832 0.838586 20.594 0.769982C19.0995 0.703138 18.6252 0.685547 14.8207 0.685547H14.8242ZM13.5695 3.22213H14.826C18.564 3.22213 19.0067 3.23444 20.482 3.30305C21.847 3.36461 22.589 3.59505 23.0825 3.78679C23.7352 4.04186 24.2025 4.34794 24.6925 4.84048C25.1825 5.33302 25.4852 5.80093 25.739 6.45882C25.9315 6.95312 26.159 7.69897 26.2202 9.07105C26.2885 10.5539 26.3025 10.999 26.3025 14.7546C26.3025 18.5102 26.2885 18.957 26.2202 20.4399C26.159 21.812 25.9297 22.5561 25.739 23.0522C25.5129 23.6624 25.1549 24.2145 24.6907 24.6687C24.2007 25.1613 23.7352 25.4656 23.0807 25.7207C22.5907 25.9142 21.8487 26.1428 20.482 26.2062C19.0067 26.273 18.564 26.2888 14.826 26.2888C11.088 26.2888 10.6435 26.273 9.16822 26.2062C7.80322 26.1428 7.06297 25.9142 6.56947 25.7207C5.96193 25.4942 5.41202 25.1349 4.95947 24.6687C4.49445 24.2142 4.13579 23.6614 3.90947 23.0504C3.71872 22.5561 3.48947 21.8102 3.42822 20.4382C3.36172 18.9553 3.34772 18.5102 3.34772 14.7511C3.34772 10.992 3.36172 10.5504 3.42822 9.06753C3.49122 7.69545 3.71872 6.9496 3.91122 6.45355C4.16497 5.79741 4.46947 5.32774 4.95947 4.8352C5.44947 4.34266 5.91497 4.03834 6.56947 3.78327C7.06297 3.58978 7.80322 3.3611 9.16822 3.29777C10.4597 3.23796 10.9602 3.22037 13.5695 3.21861V3.22213ZM22.2985 5.55818C22.0778 5.55818 21.8594 5.60186 21.6556 5.68672C21.4517 5.77159 21.2665 5.89598 21.1105 6.05279C20.9545 6.2096 20.8308 6.39576 20.7463 6.60065C20.6619 6.80553 20.6185 7.02512 20.6185 7.24689C20.6185 7.46865 20.6619 7.68824 20.7463 7.89313C20.8308 8.09801 20.9545 8.28417 21.1105 8.44099C21.2665 8.5978 21.4517 8.72219 21.6556 8.80705C21.8594 8.89192 22.0778 8.9356 22.2985 8.9356C22.744 8.9356 23.1713 8.75768 23.4864 8.44099C23.8015 8.12429 23.9785 7.69476 23.9785 7.24689C23.9785 6.79901 23.8015 6.36948 23.4864 6.05279C23.1713 5.73609 22.744 5.55818 22.2985 5.55818ZM14.826 7.53186C13.8723 7.5169 12.9253 7.69279 12.0399 8.04927C11.1546 8.40576 10.3486 8.93572 9.66898 9.60831C8.98934 10.2809 8.44961 11.0827 8.08119 11.9669C7.71278 12.8512 7.52304 13.8003 7.52304 14.759C7.52304 15.7177 7.71278 16.6668 8.08119 17.5511C8.44961 18.4354 8.98934 19.2371 9.66898 19.9097C10.3486 20.5823 11.1546 21.1123 12.0399 21.4687C12.9253 21.8252 13.8723 22.0011 14.826 21.9862C16.7134 21.9566 18.5136 21.1821 19.8379 19.83C21.1623 18.4778 21.9045 16.6565 21.9045 14.759C21.9045 12.8615 21.1623 11.0402 19.8379 9.68804C18.5136 8.33591 16.7134 7.56146 14.826 7.53186ZM14.826 10.0667C15.4389 10.0667 16.0458 10.188 16.612 10.4238C17.1783 10.6596 17.6928 11.0051 18.1262 11.4408C18.5596 11.8764 18.9034 12.3936 19.1379 12.9628C19.3725 13.532 19.4932 14.142 19.4932 14.7581C19.4932 15.3742 19.3725 15.9843 19.1379 16.5535C18.9034 17.1227 18.5596 17.6398 18.1262 18.0755C17.6928 18.5111 17.1783 18.8567 16.612 19.0925C16.0458 19.3282 15.4389 19.4496 14.826 19.4496C13.5881 19.4496 12.401 18.9553 11.5257 18.0755C10.6504 17.1957 10.1587 16.0024 10.1587 14.7581C10.1587 13.5139 10.6504 12.3206 11.5257 11.4408C12.401 10.561 13.5881 10.0667 14.826 10.0667Z" fill="#0A95A7"/>
</g>
<defs>
<clipPath id="clip0_3164_1709">
<rect width="28" height="28.1452" fill="white" transform="translate(0.824219 0.685547)"/>
</clipPath>
</defs>
</svg>
