<svg width="29" height="29" viewBox="0 0 29 29" fill="none" xmlns="http://www.w3.org/2000/svg">
<rect x="0.824219" y="0.685059" width="28" height="28.1452" rx="6" fill="#0A9EB2"/>
<path d="M22.3242 16.8939V22.2578H20.0091V17.5598V17.5575C20.0091 16.9584 20.0091 16.15 19.7492 15.4927C19.6133 15.1492 19.398 14.8217 19.0567 14.5835C18.7143 14.3445 18.288 14.2253 17.7827 14.2253C17.2909 14.2253 16.8663 14.323 16.5109 14.5211C16.1531 14.7205 15.8951 15.0052 15.7142 15.3316C15.3646 15.9621 15.2969 16.7597 15.2969 17.4705V22.2578H12.9818V12.5695H15.1672V13.5314V14.0314H15.6672H15.7077H16.0092L16.1499 13.7648C16.5138 13.0752 17.4268 12.3015 18.8445 12.3015C20.399 12.3015 21.209 12.8024 21.6698 13.5331C22.1638 14.3167 22.3242 15.4634 22.3242 16.8939ZM9.9149 12.5695V22.2578H7.5917V12.5695H9.9149ZM8.7533 7.25781C9.538 7.25781 10.1743 7.89391 10.1743 8.68269C10.1743 9.47146 9.538 10.1076 8.7533 10.1076C7.96585 10.1076 7.32422 9.46872 7.32422 8.68269C7.32422 7.89528 7.95911 7.25781 8.7533 7.25781Z" fill="#CDFDF3" stroke="#CDFDF3"/>
</svg>
