<svg width="24" height="25" viewBox="0 0 24 25" fill="none" xmlns="http://www.w3.org/2000/svg">
<path fill-rule="evenodd" clip-rule="evenodd" d="M14.7002 2.6002C14.7002 2.10314 15.1031 1.7002 15.6002 1.7002C19.5766 1.7002 22.8002 4.92375 22.8002 8.9002C22.8002 9.39725 22.3972 9.80019 21.9002 9.80019C21.4031 9.80019 21.0002 9.39725 21.0002 8.9002C21.0002 5.91786 18.5825 3.5002 15.6002 3.5002C15.1031 3.5002 14.7002 3.09725 14.7002 2.6002ZM13.5002 6.20019C13.5002 5.70314 13.9031 5.3002 14.4002 5.3002C17.0512 5.3002 19.2002 7.44923 19.2002 10.1002C19.2002 10.5973 18.7973 11.0002 18.3002 11.0002C17.8031 11.0002 17.4002 10.5973 17.4002 10.1002C17.4002 8.44334 16.057 7.10019 14.4002 7.10019C13.9031 7.10019 13.5002 6.69725 13.5002 6.20019Z" fill="#065964"/>
<path fill-rule="evenodd" clip-rule="evenodd" d="M1.2002 6.94978C1.2002 4.05051 3.55051 1.7002 6.44978 1.7002C6.97687 1.7002 7.48237 1.90958 7.85508 2.28229L7.86153 2.28874L7.97711 2.407C8.05044 2.48209 8.15518 2.58948 8.28103 2.71892C8.53259 2.97765 8.86914 3.32514 9.20807 3.67914C9.54611 4.0322 9.89023 4.3956 10.1554 4.68485C10.2872 4.82854 10.4053 4.96037 10.4952 5.06618C10.5393 5.11811 10.5842 5.17267 10.6227 5.22387C10.6416 5.24903 10.6661 5.2827 10.6903 5.32077L10.6912 5.3222C10.7063 5.34587 10.762 5.43329 10.8004 5.55126C10.9374 5.97303 10.9374 6.42736 10.8004 6.84913C10.7363 7.04631 10.6129 7.20645 10.567 7.26605L10.5654 7.26813C10.4958 7.35856 10.4126 7.45463 10.3289 7.54728C10.1607 7.73353 9.9454 7.95548 9.73229 8.17425L9.69952 8.20788C9.25691 8.66221 8.84642 9.08356 8.65187 9.34222C8.36188 9.72779 8.30037 10.3669 8.43973 10.7531C8.43973 10.7531 8.43997 10.7535 8.44105 10.7561C8.44671 10.7695 8.67644 11.2484 8.72579 11.3546C8.64329 11.1919 8.77846 11.4679 8.72579 11.3546C8.89326 11.6848 9.09679 12.0572 9.28592 12.3466C10.1598 13.6835 10.8167 14.3218 12.1611 15.2193C12.5098 15.4521 12.9607 15.6975 13.3606 15.8971C13.5578 15.9955 13.7358 16.0794 13.8735 16.1414C14.0039 16.2001 14.0724 16.2275 14.0881 16.2338C14.0909 16.2349 14.0915 16.2352 14.0915 16.2352C14.4447 16.351 14.8283 16.3316 15.168 16.1807C15.3545 16.0978 15.8436 15.7851 16.4067 15.416C16.449 15.3884 16.4912 15.3606 16.5333 15.333C16.7491 15.1915 16.9599 15.0531 17.1329 14.9434C17.2359 14.878 17.3353 14.8165 17.4203 14.7676C17.4623 14.7434 17.5096 14.7173 17.557 14.6938C17.5881 14.6784 17.6814 14.6322 17.795 14.6041C18.1268 14.5219 18.4736 14.5219 18.8054 14.6041C18.9538 14.6409 19.0954 14.7175 19.1455 14.7446C19.1478 14.7458 19.1517 14.7479 19.1517 14.7479C19.2334 14.7919 19.3273 14.8466 19.4241 14.9048C19.6192 15.0222 19.8576 15.1729 20.0949 15.3257C20.5705 15.6321 21.0665 15.9627 21.2549 16.0884C22.22 16.7317 22.8002 17.8152 22.8002 18.975C22.8002 21.3637 20.8637 23.3002 18.475 23.3002H15.4989C14.0412 23.3002 12.605 22.9491 11.3117 22.2766C7.42049 20.2532 4.24724 17.0799 2.22381 13.1887C1.5513 11.8954 1.2002 10.4592 1.2002 9.00149V6.94978ZM6.58034 3.55316C6.54539 3.51922 6.49857 3.5002 6.44978 3.5002C4.54463 3.5002 3.0002 5.04463 3.0002 6.94978V9.00149C3.0002 10.1701 3.28167 11.3215 3.8208 12.3583C5.67355 15.9213 8.57914 18.8268 12.1421 20.6796C13.1789 21.2187 14.3303 21.5002 15.4989 21.5002H18.475C19.8696 21.5002 21.0002 20.3696 21.0002 18.975C21.0002 18.417 20.7213 17.8959 20.257 17.5864C20.0687 17.4608 19.583 17.1371 19.1202 16.839C18.8881 16.6895 18.6678 16.5505 18.4964 16.4473C18.4211 16.4021 18.3611 16.3673 18.3169 16.3429C18.3088 16.3424 18.3008 16.3423 18.2927 16.3425C18.2439 16.3713 18.1788 16.4115 18.0973 16.4632C17.937 16.5649 17.7404 16.6939 17.5242 16.8357C17.4814 16.8639 17.4377 16.8925 17.3935 16.9215C16.9042 17.2422 16.2557 17.6671 15.8987 17.8257C15.1514 18.1577 14.3075 18.2004 13.5306 17.9455C13.3624 17.8904 12.9668 17.7122 12.5569 17.5077C12.1274 17.2933 11.6007 17.0094 11.1617 16.7164C9.63171 15.695 8.79622 14.8873 7.77921 13.3314C7.31542 12.6218 6.83033 11.5961 6.74662 11.3641C6.41765 10.4526 6.53005 9.16876 7.21334 8.26027C7.48046 7.90511 7.96199 7.41139 8.3554 7.00802C8.38513 6.97754 8.41435 6.94758 8.44294 6.91824C8.66081 6.69458 8.85165 6.49741 8.99298 6.34091C9.03922 6.28971 9.07543 6.24803 9.10276 6.2152C9.10289 6.21272 9.10298 6.21024 9.10304 6.20776C9.03619 6.13004 8.94328 6.02631 8.82863 5.90125C8.57685 5.62663 8.24347 5.27443 7.90792 4.92397C7.57328 4.57446 7.24017 4.23052 6.99047 3.97369C6.86569 3.84535 6.7619 3.73893 6.68936 3.66466L6.58034 3.55316Z" fill="#065964"/>
</svg>
