<svg width="21" height="20" viewBox="0 0 21 20" fill="none" xmlns="http://www.w3.org/2000/svg">
<path fill-rule="evenodd" clip-rule="evenodd" d="M7.25 1C7.66421 1 8 1.33579 8 1.75V3H13V1.75C13 1.33579 13.3358 1 13.75 1C14.1642 1 14.5 1.33579 14.5 1.75V3H16.75C18.2688 3 19.5 4.23122 19.5 5.75V16.25C19.5 17.7688 18.2688 19 16.75 19H4.25C2.73122 19 1.5 17.7688 1.5 16.25V5.75C1.5 4.23122 2.73122 3 4.25 3H6.5V1.75C6.5 1.33579 6.83579 1 7.25 1ZM6.5 4.5H4.25C3.55964 4.5 3 5.05964 3 5.75V8H18V5.75C18 5.05964 17.4404 4.5 16.75 4.5H14.5V5.25C14.5 5.66421 14.1642 6 13.75 6C13.3358 6 13 5.66421 13 5.25V4.5H8V5.25C8 5.66421 7.66421 6 7.25 6C6.83579 6 6.5 5.66421 6.5 5.25V4.5ZM18 9.5H3V16.25C3 16.9404 3.55964 17.5 4.25 17.5H16.75C17.4404 17.5 18 16.9404 18 16.25V9.5Z" fill="#354253"/>
</svg>
