<svg width="20" height="20" viewBox="0 0 20 20" fill="none" xmlns="http://www.w3.org/2000/svg">
<path d="M16.6668 9.99984C16.6668 7.8225 16.6668 6.73384 16.2543 5.89735C15.8649 5.10762 15.2257 4.46846 14.436 4.07901C13.5995 3.6665 12.5108 3.6665 10.3335 3.6665H10.0002C7.50785 3.6665 6.2617 3.6665 5.3335 4.2024C4.72542 4.55348 4.22047 5.05843 3.86939 5.6665C3.3335 6.59471 3.3335 7.84086 3.3335 10.3332V14.3332C3.3335 15.276 3.3335 15.7474 3.62639 16.0403C3.91928 16.3332 4.39069 16.3332 5.3335 16.3332H10.3335C12.5108 16.3332 13.5995 16.3332 14.436 15.9207C15.2257 15.5312 15.8649 14.8921 16.2543 14.1023C16.6668 13.2658 16.6668 12.1772 16.6668 9.99984V9.99984Z" stroke="#CDFDF3" stroke-width="1.4"/>
<path d="M7.5 8.4165L12.5 8.4165" stroke="#CDFDF3" stroke-width="1.4" stroke-linecap="round" stroke-linejoin="round"/>
<path d="M7.5 11.5835H10" stroke="#CDFDF3" stroke-width="1.4" stroke-linecap="round" stroke-linejoin="round"/>
</svg>
