<svg width="21" height="20" viewBox="0 0 21 20" fill="none" xmlns="http://www.w3.org/2000/svg">
<path d="M5.51402 6.63111L5.58376 7.42806H5.58376L5.51402 6.63111ZM8.70189 4.31522L7.96183 4.0114L7.96183 4.0114L8.70189 4.31522ZM4.20069 9.8713L3.66918 10.4692L4.20069 9.8713ZM5.30983 6.64898L5.24009 5.85202H5.24009L5.30983 6.64898ZM5.73959 13.608L6.51973 13.7852L5.73959 13.608ZM5.93839 11.8417L5.16268 12.0374L5.93839 11.8417ZM4.65886 10.2786L5.19037 9.68069L4.65886 10.2786ZM5.8632 11.6101L6.60598 11.313H6.60598L5.8632 11.6101ZM8.37762 15.5151L8.87592 16.141L8.37762 15.5151ZM5.89847 16.988L5.69238 17.761L5.89847 16.988ZM5.67625 13.887L4.89611 13.7098L5.67625 13.887ZM5.44176 16.7128L4.85277 17.2541L5.44176 16.7128ZM12.6226 15.5151L12.1243 16.141L12.6226 15.5151ZM10.7997 14.3867L10.6764 15.1771L10.7997 14.3867ZM10.2005 14.3867L10.3239 15.1771L10.2005 14.3867ZM15.324 13.887L14.5438 14.0641V14.0641L15.324 13.887ZM15.5585 16.7128L16.1475 17.2541L15.5585 16.7128ZM15.1017 16.988L14.8957 16.215L15.1017 16.988ZM16.3414 10.2786L16.8729 10.8765L16.3414 10.2786ZM15.137 11.6101L15.8798 11.9072L15.137 11.6101ZM15.2606 13.608L16.0408 13.4309L16.0408 13.4309L15.2606 13.608ZM15.0618 11.8417L15.8375 12.0374L15.0618 11.8417ZM15.6904 6.64898L15.7601 5.85202L15.7601 5.85202L15.6904 6.64898ZM16.7995 9.8713L16.268 9.2734V9.2734L16.7995 9.8713ZM12.2983 4.31522L11.5583 4.61903V4.61903L12.2983 4.31522ZM15.4862 6.63111L15.4165 7.42806H15.4165L15.4862 6.63111ZM12.2635 4.23045L13.0036 3.92664V3.92664L12.2635 4.23045ZM8.73669 4.23045L9.47676 4.53427L9.47676 4.53427L8.73669 4.23045ZM10.5001 1.5V2.3V1.5ZM14.691 3.07578C14.3749 3.38456 14.3691 3.89106 14.6779 4.20707C14.9866 4.52309 15.4931 4.52895 15.8092 4.22017L14.691 3.07578ZM17.7092 2.36367C18.0252 2.05489 18.031 1.54839 17.7223 1.23237C17.4135 0.916358 16.907 0.910494 16.591 1.21928L17.7092 2.36367ZM18.6591 12.3583C18.3431 12.0495 17.8366 12.0554 17.5278 12.3714C17.219 12.6874 17.2249 13.1939 17.5409 13.5027L18.6591 12.3583ZM19.4409 15.3592C19.7569 15.668 20.2634 15.6621 20.5722 15.3461C20.881 15.0301 20.8751 14.5236 20.5591 14.2148L19.4409 15.3592ZM11.3 16.1794C11.3 15.7375 10.9418 15.3794 10.5 15.3794C10.0582 15.3794 9.7 15.7375 9.7 16.1794H11.3ZM9.7 18.5C9.7 18.9418 10.0582 19.3 10.5 19.3C10.9418 19.3 11.3 18.9418 11.3 18.5H9.7ZM5.191 4.22017C5.50702 4.52895 6.01351 4.52309 6.3223 4.20707C6.63108 3.89106 6.62521 3.38456 6.3092 3.07578L5.191 4.22017ZM4.4092 1.21928C4.09318 0.910494 3.58669 0.916358 3.2779 1.23237C2.96912 1.54839 2.97499 2.05489 3.291 2.36367L4.4092 1.21928ZM3.4591 13.5027C3.77511 13.1939 3.78098 12.6874 3.47219 12.3714C3.16341 12.0554 2.65691 12.0495 2.3409 12.3583L3.4591 13.5027ZM0.440902 14.2148C0.124886 14.5236 0.119022 15.0301 0.427803 15.3461C0.736585 15.6621 1.24308 15.668 1.5591 15.3592L0.440902 14.2148ZM11.5235 4.53427L11.5583 4.61903L13.0384 4.01141L13.0036 3.92664L11.5235 4.53427ZM15.4165 7.42806L15.6207 7.44593L15.7601 5.85202L15.5559 5.83415L15.4165 7.42806ZM16.268 9.2734L15.8098 9.68069L16.8729 10.8765L17.331 10.4692L16.268 9.2734ZM14.4805 13.7852L14.5438 14.0641L16.1041 13.7099L16.0408 13.4309L14.4805 13.7852ZM6.45639 14.0641L6.51973 13.7852L4.95945 13.4309L4.89611 13.7098L6.45639 14.0641ZM5.19037 9.68069L4.73221 9.2734L3.66918 10.4692L4.12734 10.8765L5.19037 9.68069ZM5.37957 7.44593L5.58376 7.42806L5.44428 5.83415L5.24009 5.85202L5.37957 7.44593ZM9.44196 4.61903L9.47676 4.53427L7.99663 3.92664L7.96183 4.0114L9.44196 4.61903ZM5.58376 7.42806C6.13258 7.38004 6.60284 7.33982 6.98757 7.26683C7.38951 7.19057 7.76392 7.06797 8.10862 6.81756L7.16823 5.52308C7.08273 5.5852 6.95967 5.64358 6.68932 5.69487C6.40176 5.74943 6.02493 5.78334 5.44428 5.83415L5.58376 7.42806ZM7.96183 4.0114C7.74447 4.54087 7.60366 4.88123 7.46865 5.13221C7.34278 5.36619 7.25261 5.46178 7.16823 5.52308L8.10862 6.81756C8.45445 6.56633 8.68493 6.24856 8.8777 5.89021C9.06133 5.54887 9.23715 5.11794 9.44196 4.61903L7.96183 4.0114ZM4.73221 9.2734C4.02551 8.64517 3.56449 8.23262 3.29209 7.91025C3.00283 7.56791 3.14558 7.58171 3.09572 7.72656L1.58283 7.20582C1.3352 7.92524 1.72227 8.53142 2.06996 8.94291C2.43451 9.37435 3.00309 9.87708 3.66918 10.4692L4.73221 9.2734ZM5.24009 5.85202C4.3422 5.93059 3.5806 5.9953 3.02577 6.12323C2.49856 6.2448 1.82777 6.49421 1.58283 7.20582L3.09572 7.72656C3.04855 7.8636 2.93878 7.78528 3.38527 7.68232C3.80414 7.58574 4.42894 7.52912 5.37957 7.44593L5.24009 5.85202ZM6.51973 13.7852C6.6184 13.3506 6.70453 12.9746 6.74795 12.6546C6.79341 12.3197 6.8011 11.991 6.71409 11.646L5.16268 12.0374C5.18212 12.1144 5.19216 12.2208 5.16249 12.4395C5.13078 12.6731 5.06428 12.9692 4.95945 13.4309L6.51973 13.7852ZM4.12734 10.8765C4.48499 11.1944 4.71505 11.3999 4.87974 11.574C5.03459 11.7377 5.09036 11.8321 5.12043 11.9072L6.60598 11.313C6.4741 10.9833 6.27516 10.7208 6.04205 10.4744C5.81879 10.2384 5.52765 9.98052 5.19037 9.68069L4.12734 10.8765ZM6.71409 11.646C6.68551 11.5327 6.64938 11.4215 6.60598 11.313L5.12043 11.9072C5.13744 11.9497 5.15155 11.9932 5.16268 12.0374L6.71409 11.646ZM7.87931 14.8893C7.19474 15.4343 6.73226 15.8011 6.38304 16.0236C5.99045 16.2737 5.97578 16.1807 6.10456 16.215L5.69238 17.761C6.29255 17.921 6.8482 17.6244 7.24272 17.3731C7.68059 17.0941 8.22199 16.6616 8.87592 16.141L7.87931 14.8893ZM4.89611 13.7098C4.7136 14.5136 4.5605 15.1826 4.5016 15.6925C4.44886 16.1492 4.424 16.7877 4.85277 17.2541L6.03075 16.1714C6.13302 16.2826 6.03842 16.3317 6.09104 15.8761C6.13751 15.4737 6.26491 14.9074 6.45639 14.0641L4.89611 13.7098ZM6.10456 16.215C6.07374 16.2068 6.04854 16.1907 6.03075 16.1714L4.85277 17.2541C5.07898 17.5002 5.37091 17.6753 5.69238 17.761L6.10456 16.215ZM13.1209 14.8893C12.6932 14.5487 12.3299 14.2584 12.0084 14.0483C11.6747 13.8303 11.3299 13.6597 10.923 13.5963L10.6764 15.1771C10.7741 15.1924 10.9012 15.2362 11.1332 15.3877C11.3773 15.5472 11.6731 15.7817 12.1243 16.141L13.1209 14.8893ZM8.87592 16.141C9.32712 15.7817 9.62296 15.5472 9.86707 15.3877C10.099 15.2362 10.2262 15.1924 10.3239 15.1771L10.0772 13.5963C9.67036 13.6597 9.32555 13.8303 8.99186 14.0483C8.67037 14.2584 8.30702 14.5487 7.87931 14.8893L8.87592 16.141ZM10.923 13.5963C10.6428 13.5526 10.3574 13.5526 10.0772 13.5963L10.3239 15.1771C10.4406 15.1589 10.5596 15.1589 10.6764 15.1771L10.923 13.5963ZM14.5438 14.0641C14.7353 14.9074 14.8627 15.4737 14.9092 15.8761C14.9618 16.3317 14.8672 16.2826 14.9695 16.1714L16.1475 17.2541C16.5762 16.7877 16.5514 16.1492 16.4986 15.6925C16.4397 15.1826 16.2866 14.5136 16.1041 13.7099L14.5438 14.0641ZM12.1243 16.141C12.7782 16.6616 13.3196 17.0941 13.7575 17.3731C14.152 17.6244 14.7077 17.921 15.3078 17.761L14.8957 16.215C15.0244 16.1807 15.0098 16.2737 14.6172 16.0236C14.268 15.8011 13.8055 15.4343 13.1209 14.8893L12.1243 16.141ZM14.9695 16.1714C14.9517 16.1907 14.9265 16.2068 14.8957 16.215L15.3078 17.761C15.6293 17.6753 15.9212 17.5002 16.1475 17.2541L14.9695 16.1714ZM15.8098 9.68069C15.4726 9.98052 15.1814 10.2384 14.9582 10.4744C14.7251 10.7208 14.5261 10.9833 14.3942 11.313L15.8798 11.9072C15.9099 11.8321 15.9656 11.7377 16.1205 11.574C16.2852 11.3999 16.5152 11.1944 16.8729 10.8765L15.8098 9.68069ZM16.0408 13.4309C15.9359 12.9692 15.8694 12.6731 15.8377 12.4395C15.8081 12.2208 15.8181 12.1144 15.8375 12.0374L14.2861 11.646C14.1991 11.991 14.2068 12.3197 14.2523 12.6546C14.2957 12.9746 14.3818 13.3506 14.4805 13.7852L16.0408 13.4309ZM14.3942 11.313C14.3508 11.4215 14.3147 11.5327 14.2861 11.646L15.8375 12.0374C15.8487 11.9932 15.8628 11.9497 15.8798 11.9072L14.3942 11.313ZM15.6207 7.44593C16.5713 7.52912 17.1961 7.58574 17.6149 7.68232C18.0614 7.78528 17.9517 7.8636 17.9045 7.72656L19.4174 7.20582C19.1724 6.49421 18.5017 6.2448 17.9745 6.12323C17.4196 5.9953 16.658 5.93059 15.7601 5.85202L15.6207 7.44593ZM17.331 10.4692C17.9971 9.87708 18.5657 9.37435 18.9303 8.9429C19.278 8.53142 19.665 7.92524 19.4174 7.20582L17.9045 7.72656C17.8546 7.58171 17.9974 7.56791 17.7081 7.91025C17.4357 8.23262 16.9747 8.64517 16.268 9.2734L17.331 10.4692ZM11.5583 4.61903C11.7631 5.11794 11.9389 5.54887 12.1225 5.89021C12.3153 6.24856 12.5458 6.56633 12.8916 6.81756L13.832 5.52308C13.7476 5.46178 13.6574 5.36619 13.5316 5.13221C13.3966 4.88123 13.2557 4.54087 13.0384 4.0114L11.5583 4.61903ZM15.5559 5.83415C14.9753 5.78334 14.5985 5.74943 14.3109 5.69487C14.0405 5.64358 13.9175 5.5852 13.832 5.52308L12.8916 6.81756C13.2363 7.06797 13.6107 7.19057 14.0127 7.26683C14.3974 7.33982 14.8676 7.38004 15.4165 7.42806L15.5559 5.83415ZM13.0036 3.92664C12.6402 3.04145 12.3354 2.29373 12.0325 1.77763C11.7449 1.28771 11.2845 0.7 10.5001 0.7V2.3C10.3582 2.3 10.4059 2.16737 10.6526 2.5876C10.8839 2.98165 11.1396 3.59915 11.5235 4.53427L13.0036 3.92664ZM9.47676 4.53427C9.86064 3.59915 10.1163 2.98164 10.3476 2.5876C10.5943 2.16737 10.642 2.3 10.5001 2.3V0.7C9.71572 0.7 9.25536 1.28771 8.96777 1.77763C8.66481 2.29373 8.36001 3.04145 7.99662 3.92664L9.47676 4.53427ZM15.8092 4.22017L17.7092 2.36367L16.591 1.21928L14.691 3.07578L15.8092 4.22017ZM17.5409 13.5027L19.4409 15.3592L20.5591 14.2148L18.6591 12.3583L17.5409 13.5027ZM9.7 16.1794V18.5H11.3V16.1794H9.7ZM6.3092 3.07578L4.4092 1.21928L3.291 2.36367L5.191 4.22017L6.3092 3.07578ZM2.3409 12.3583L0.440902 14.2148L1.5591 15.3592L3.4591 13.5027L2.3409 12.3583Z" fill="#CDFDF3"/>
</svg>
