<svg width="58" height="54" viewBox="0 0 58 54" fill="none" xmlns="http://www.w3.org/2000/svg">
<path d="M23.9882 10.2179C26.112 4.92322 27.1739 2.27588 29 2.27588C30.8261 2.27588 31.888 4.92322 34.0118 10.2179L34.1107 10.4645C35.3106 13.4557 35.9105 14.9513 37.1332 15.8604C38.3559 16.7694 39.9609 16.9132 43.171 17.2007L43.7513 17.2526C49.005 17.7232 51.6318 17.9584 52.1939 19.6297C52.756 21.3009 50.8052 23.0757 46.9036 26.6254L45.6014 27.8101C43.6264 29.607 42.6388 30.5054 42.1786 31.683C42.0927 31.9026 42.0213 32.1277 41.9649 32.3567C41.6623 33.5842 41.9515 34.8876 42.5299 37.4944L42.7099 38.3058C43.7728 43.0965 44.3043 45.4918 43.3763 46.525C43.0296 46.9111 42.5789 47.1891 42.0783 47.3257C40.7386 47.6913 38.8365 46.1413 35.0323 43.0415C32.5344 41.006 31.2854 39.9883 29.8514 39.7593C29.2874 39.6692 28.7126 39.6692 28.1485 39.7593C26.7146 39.9883 25.4656 41.006 22.9676 43.0415C19.1635 46.1413 17.2614 47.6913 15.9216 47.3257C15.421 47.1891 14.9704 46.9111 14.6236 46.525C13.6957 45.4918 14.2271 43.0965 15.2901 38.3058L15.4701 37.4944C16.0484 34.8876 16.3376 33.5842 16.0351 32.3567C15.9786 32.1277 15.9073 31.9026 15.8214 31.683C15.3611 30.5054 14.3736 29.607 12.3985 27.8101L11.0964 26.6254C7.19476 23.0757 5.24395 21.3009 5.80603 19.6297C6.36811 17.9584 8.99496 17.7232 14.2487 17.2526L14.829 17.2007C18.0391 16.9132 19.6441 16.7694 20.8668 15.8604C22.0895 14.9513 22.6894 13.4557 23.8893 10.4645L23.9882 10.2179Z" stroke="#023D6A" stroke-width="2.6"/>
<path d="M42.4995 8.52304L47.8995 3.12305" stroke="#099BBE" stroke-width="2.6" stroke-linecap="round"/>
<path d="M50.6001 35.5233L56.0001 40.9233" stroke="#099BBE" stroke-width="2.6" stroke-linecap="round"/>
<path d="M29 44.9741V51.7241" stroke="#099BBE" stroke-width="2.6" stroke-linecap="round"/>
<path d="M15.5 8.52304L10.1 3.12305" stroke="#099BBE" stroke-width="2.6" stroke-linecap="round"/>
<path d="M7.3999 35.5233L1.99991 40.9233" stroke="#099BBE" stroke-width="2.6" stroke-linecap="round"/>
</svg>
