<svg width="25" height="20" viewBox="0 0 25 20" fill="none" xmlns="http://www.w3.org/2000/svg">
<path d="M7.51402 6.63111L7.58376 7.42806H7.58376L7.51402 6.63111ZM10.7019 4.31522L9.96183 4.0114L9.96183 4.0114L10.7019 4.31522ZM6.20069 9.8713L5.66918 10.4692L6.20069 9.8713ZM7.30983 6.64898L7.24009 5.85202H7.24009L7.30983 6.64898ZM7.73959 13.608L8.51973 13.7852L7.73959 13.608ZM7.93839 11.8417L7.16268 12.0374L7.93839 11.8417ZM6.65886 10.2786L7.19037 9.68069L6.65886 10.2786ZM7.8632 11.6101L8.60598 11.313H8.60598L7.8632 11.6101ZM10.3776 15.5151L10.8759 16.141L10.3776 15.5151ZM7.89847 16.988L7.69238 17.761L7.89847 16.988ZM7.67625 13.887L6.89611 13.7098L7.67625 13.887ZM7.44176 16.7128L6.85277 17.2541L7.44176 16.7128ZM14.6226 15.5151L14.1243 16.141L14.6226 15.5151ZM12.7997 14.3867L12.6764 15.1771L12.7997 14.3867ZM12.2005 14.3867L12.3239 15.1771L12.2005 14.3867ZM17.324 13.887L16.5438 14.0641V14.0641L17.324 13.887ZM17.5585 16.7128L18.1475 17.2541L17.5585 16.7128ZM17.1017 16.988L16.8957 16.215L17.1017 16.988ZM18.3414 10.2786L18.8729 10.8765L18.3414 10.2786ZM17.137 11.6101L17.8798 11.9072L17.137 11.6101ZM17.2606 13.608L18.0408 13.4309L18.0408 13.4309L17.2606 13.608ZM17.0618 11.8417L17.8375 12.0374L17.0618 11.8417ZM17.6904 6.64898L17.7601 5.85202L17.7601 5.85202L17.6904 6.64898ZM18.7995 9.8713L18.268 9.2734V9.2734L18.7995 9.8713ZM14.2983 4.31522L13.5583 4.61903V4.61903L14.2983 4.31522ZM17.4862 6.63111L17.4165 7.42806H17.4165L17.4862 6.63111ZM14.2635 4.23045L15.0036 3.92664V3.92664L14.2635 4.23045ZM10.7367 4.23045L11.4768 4.53427L11.4768 4.53427L10.7367 4.23045ZM12.5001 1.5V2.3V1.5ZM16.691 3.07578C16.3749 3.38456 16.3691 3.89106 16.6779 4.20707C16.9866 4.52309 17.4931 4.52895 17.8092 4.22017L16.691 3.07578ZM19.7092 2.36367C20.0252 2.05489 20.031 1.54839 19.7223 1.23237C19.4135 0.916358 18.907 0.910494 18.591 1.21928L19.7092 2.36367ZM20.6591 12.3583C20.3431 12.0495 19.8366 12.0554 19.5278 12.3714C19.219 12.6874 19.2249 13.1939 19.5409 13.5027L20.6591 12.3583ZM21.4409 15.3592C21.7569 15.668 22.2634 15.6621 22.5722 15.3461C22.881 15.0301 22.8751 14.5236 22.5591 14.2148L21.4409 15.3592ZM13.3 16.1794C13.3 15.7375 12.9418 15.3794 12.5 15.3794C12.0582 15.3794 11.7 15.7375 11.7 16.1794H13.3ZM11.7 18.5C11.7 18.9418 12.0582 19.3 12.5 19.3C12.9418 19.3 13.3 18.9418 13.3 18.5H11.7ZM7.191 4.22017C7.50702 4.52895 8.01351 4.52309 8.3223 4.20707C8.63108 3.89106 8.62521 3.38456 8.3092 3.07578L7.191 4.22017ZM6.4092 1.21928C6.09318 0.910494 5.58669 0.916358 5.2779 1.23237C4.96912 1.54839 4.97499 2.05489 5.291 2.36367L6.4092 1.21928ZM5.4591 13.5027C5.77511 13.1939 5.78098 12.6874 5.47219 12.3714C5.16341 12.0554 4.65691 12.0495 4.3409 12.3583L5.4591 13.5027ZM2.4409 14.2148C2.12489 14.5236 2.11902 15.0301 2.4278 15.3461C2.73658 15.6621 3.24308 15.668 3.5591 15.3592L2.4409 14.2148ZM13.5235 4.53427L13.5583 4.61903L15.0384 4.01141L15.0036 3.92664L13.5235 4.53427ZM17.4165 7.42806L17.6207 7.44593L17.7601 5.85202L17.5559 5.83415L17.4165 7.42806ZM18.268 9.2734L17.8098 9.68069L18.8729 10.8765L19.331 10.4692L18.268 9.2734ZM16.4805 13.7852L16.5438 14.0641L18.1041 13.7099L18.0408 13.4309L16.4805 13.7852ZM8.45639 14.0641L8.51973 13.7852L6.95945 13.4309L6.89611 13.7098L8.45639 14.0641ZM7.19037 9.68069L6.73221 9.2734L5.66918 10.4692L6.12734 10.8765L7.19037 9.68069ZM7.37957 7.44593L7.58376 7.42806L7.44428 5.83415L7.24009 5.85202L7.37957 7.44593ZM11.442 4.61903L11.4768 4.53427L9.99663 3.92664L9.96183 4.0114L11.442 4.61903ZM7.58376 7.42806C8.13258 7.38004 8.60284 7.33982 8.98757 7.26683C9.38951 7.19057 9.76392 7.06797 10.1086 6.81756L9.16823 5.52308C9.08273 5.5852 8.95967 5.64358 8.68932 5.69487C8.40176 5.74943 8.02493 5.78334 7.44428 5.83415L7.58376 7.42806ZM9.96183 4.0114C9.74447 4.54087 9.60366 4.88123 9.46865 5.13221C9.34278 5.36619 9.25261 5.46178 9.16823 5.52308L10.1086 6.81756C10.4544 6.56633 10.6849 6.24856 10.8777 5.89021C11.0613 5.54887 11.2371 5.11794 11.442 4.61903L9.96183 4.0114ZM6.73221 9.2734C6.02551 8.64517 5.56449 8.23262 5.29209 7.91025C5.00283 7.56791 5.14558 7.58171 5.09572 7.72656L3.58283 7.20582C3.3352 7.92524 3.72227 8.53142 4.06996 8.94291C4.43451 9.37435 5.00309 9.87708 5.66918 10.4692L6.73221 9.2734ZM7.24009 5.85202C6.3422 5.93059 5.5806 5.9953 5.02577 6.12323C4.49856 6.2448 3.82777 6.49421 3.58283 7.20582L5.09572 7.72656C5.04855 7.8636 4.93878 7.78528 5.38527 7.68232C5.80414 7.58574 6.42894 7.52912 7.37957 7.44593L7.24009 5.85202ZM8.51973 13.7852C8.6184 13.3506 8.70453 12.9746 8.74795 12.6546C8.79341 12.3197 8.8011 11.991 8.71409 11.646L7.16268 12.0374C7.18212 12.1144 7.19216 12.2208 7.16249 12.4395C7.13078 12.6731 7.06428 12.9692 6.95945 13.4309L8.51973 13.7852ZM6.12734 10.8765C6.48499 11.1944 6.71505 11.3999 6.87974 11.574C7.03459 11.7377 7.09036 11.8321 7.12043 11.9072L8.60598 11.313C8.4741 10.9833 8.27516 10.7208 8.04205 10.4744C7.81879 10.2384 7.52765 9.98052 7.19037 9.68069L6.12734 10.8765ZM8.71409 11.646C8.68551 11.5327 8.64938 11.4215 8.60598 11.313L7.12043 11.9072C7.13744 11.9497 7.15155 11.9932 7.16268 12.0374L8.71409 11.646ZM9.87931 14.8893C9.19474 15.4343 8.73226 15.8011 8.38304 16.0236C7.99045 16.2737 7.97578 16.1807 8.10456 16.215L7.69238 17.761C8.29255 17.921 8.8482 17.6244 9.24272 17.3731C9.68059 17.0941 10.222 16.6616 10.8759 16.141L9.87931 14.8893ZM6.89611 13.7098C6.7136 14.5136 6.5605 15.1826 6.5016 15.6925C6.44886 16.1492 6.424 16.7877 6.85277 17.2541L8.03075 16.1714C8.13302 16.2826 8.03842 16.3317 8.09104 15.8761C8.13751 15.4737 8.26491 14.9074 8.45639 14.0641L6.89611 13.7098ZM8.10456 16.215C8.07374 16.2068 8.04854 16.1907 8.03075 16.1714L6.85277 17.2541C7.07898 17.5002 7.37091 17.6753 7.69238 17.761L8.10456 16.215ZM15.1209 14.8893C14.6932 14.5487 14.3299 14.2584 14.0084 14.0483C13.6747 13.8303 13.3299 13.6597 12.923 13.5963L12.6764 15.1771C12.7741 15.1924 12.9012 15.2362 13.1332 15.3877C13.3773 15.5472 13.6731 15.7817 14.1243 16.141L15.1209 14.8893ZM10.8759 16.141C11.3271 15.7817 11.623 15.5472 11.8671 15.3877C12.099 15.2362 12.2262 15.1924 12.3239 15.1771L12.0772 13.5963C11.6704 13.6597 11.3255 13.8303 10.9919 14.0483C10.6704 14.2584 10.307 14.5487 9.87931 14.8893L10.8759 16.141ZM12.923 13.5963C12.6428 13.5526 12.3574 13.5526 12.0772 13.5963L12.3239 15.1771C12.4406 15.1589 12.5596 15.1589 12.6764 15.1771L12.923 13.5963ZM16.5438 14.0641C16.7353 14.9074 16.8627 15.4737 16.9092 15.8761C16.9618 16.3317 16.8672 16.2826 16.9695 16.1714L18.1475 17.2541C18.5762 16.7877 18.5514 16.1492 18.4986 15.6925C18.4397 15.1826 18.2866 14.5136 18.1041 13.7099L16.5438 14.0641ZM14.1243 16.141C14.7782 16.6616 15.3196 17.0941 15.7575 17.3731C16.152 17.6244 16.7077 17.921 17.3078 17.761L16.8957 16.215C17.0244 16.1807 17.0098 16.2737 16.6172 16.0236C16.268 15.8011 15.8055 15.4343 15.1209 14.8893L14.1243 16.141ZM16.9695 16.1714C16.9517 16.1907 16.9265 16.2068 16.8957 16.215L17.3078 17.761C17.6293 17.6753 17.9212 17.5002 18.1475 17.2541L16.9695 16.1714ZM17.8098 9.68069C17.4726 9.98052 17.1814 10.2384 16.9582 10.4744C16.7251 10.7208 16.5261 10.9833 16.3942 11.313L17.8798 11.9072C17.9099 11.8321 17.9656 11.7377 18.1205 11.574C18.2852 11.3999 18.5152 11.1944 18.8729 10.8765L17.8098 9.68069ZM18.0408 13.4309C17.9359 12.9692 17.8694 12.6731 17.8377 12.4395C17.8081 12.2208 17.8181 12.1144 17.8375 12.0374L16.2861 11.646C16.1991 11.991 16.2068 12.3197 16.2523 12.6546C16.2957 12.9746 16.3818 13.3506 16.4805 13.7852L18.0408 13.4309ZM16.3942 11.313C16.3508 11.4215 16.3147 11.5327 16.2861 11.646L17.8375 12.0374C17.8487 11.9932 17.8628 11.9497 17.8798 11.9072L16.3942 11.313ZM17.6207 7.44593C18.5713 7.52912 19.1961 7.58574 19.6149 7.68232C20.0614 7.78528 19.9517 7.8636 19.9045 7.72656L21.4174 7.20582C21.1724 6.49421 20.5017 6.2448 19.9745 6.12323C19.4196 5.9953 18.658 5.93059 17.7601 5.85202L17.6207 7.44593ZM19.331 10.4692C19.9971 9.87708 20.5657 9.37435 20.9303 8.9429C21.278 8.53142 21.665 7.92524 21.4174 7.20582L19.9045 7.72656C19.8546 7.58171 19.9974 7.56791 19.7081 7.91025C19.4357 8.23262 18.9747 8.64517 18.268 9.2734L19.331 10.4692ZM13.5583 4.61903C13.7631 5.11794 13.9389 5.54887 14.1225 5.89021C14.3153 6.24856 14.5458 6.56633 14.8916 6.81756L15.832 5.52308C15.7476 5.46178 15.6574 5.36619 15.5316 5.13221C15.3966 4.88123 15.2557 4.54087 15.0384 4.0114L13.5583 4.61903ZM17.5559 5.83415C16.9753 5.78334 16.5985 5.74943 16.3109 5.69487C16.0405 5.64358 15.9175 5.5852 15.832 5.52308L14.8916 6.81756C15.2363 7.06797 15.6107 7.19057 16.0127 7.26683C16.3974 7.33982 16.8676 7.38004 17.4165 7.42806L17.5559 5.83415ZM15.0036 3.92664C14.6402 3.04145 14.3354 2.29373 14.0325 1.77763C13.7449 1.28771 13.2845 0.7 12.5001 0.7V2.3C12.3582 2.3 12.4059 2.16737 12.6526 2.5876C12.8839 2.98165 13.1396 3.59915 13.5235 4.53427L15.0036 3.92664ZM11.4768 4.53427C11.8606 3.59915 12.1163 2.98164 12.3476 2.5876C12.5943 2.16737 12.642 2.3 12.5001 2.3V0.7C11.7157 0.7 11.2554 1.28771 10.9678 1.77763C10.6648 2.29373 10.36 3.04145 9.99662 3.92664L11.4768 4.53427ZM17.8092 4.22017L19.7092 2.36367L18.591 1.21928L16.691 3.07578L17.8092 4.22017ZM19.5409 13.5027L21.4409 15.3592L22.5591 14.2148L20.6591 12.3583L19.5409 13.5027ZM11.7 16.1794V18.5H13.3V16.1794H11.7ZM8.3092 3.07578L6.4092 1.21928L5.291 2.36367L7.191 4.22017L8.3092 3.07578ZM4.3409 12.3583L2.4409 14.2148L3.5591 15.3592L5.4591 13.5027L4.3409 12.3583Z" fill="white"/>
</svg>
