<svg width="24" height="20" viewBox="0 0 24 20" fill="none" xmlns="http://www.w3.org/2000/svg">
<path fill-rule="evenodd" clip-rule="evenodd" d="M12 1.875C9.77639 1.875 7.7425 2.87906 6.70077 4.49836C6.56295 4.71259 6.46781 4.8604 6.39773 4.96476C6.37659 4.99625 6.36001 5.02035 6.34717 5.03858L6.32426 5.03942C6.25434 5.04156 6.15837 5.04167 6 5.04167C4.02127 5.04167 2 6.34754 2 8.41667C2 10.3267 3.72232 11.5863 5.54365 11.7687L8.041 9.79167H6C4.66502 9.79167 4 8.97089 4 8.41667C4 7.86245 4.66502 7.04167 6 7.04167L6.07045 7.04178H6.07045C6.2955 7.04231 6.55477 7.04291 6.76553 6.99829C6.90324 6.96913 7.10727 6.92323 7.31595 6.80934C7.52463 6.69546 7.67362 6.54871 7.77265 6.44867C7.88735 6.33279 7.99043 6.18053 8.05815 6.07967C8.14058 5.95691 8.24647 5.79231 8.37659 5.59004L8.38277 5.58043C8.99379 4.63064 10.3322 3.875 12 3.875C13.4986 3.875 14.7428 4.4881 15.4198 5.31034L15.4357 5.32961L15.4357 5.32967C15.7449 5.70518 15.9979 6.01254 16.199 6.23646C16.3659 6.4224 16.6236 6.70306 16.9356 6.85032C17.2046 6.97729 17.4758 7.01236 17.6925 7.02733C17.9006 7.0417 18.1522 7.04169 18.4222 7.04167L18.4519 7.04167H18.625C19.3844 7.04167 20 7.65728 20 8.41667C20 9.17606 19.3844 9.79167 18.625 9.79167H15.959L18.4853 11.7917H18.625C20.489 11.7917 22 10.2806 22 8.41667C22 6.55271 20.489 5.04167 18.625 5.04167H18.4519C18.1419 5.04167 17.9609 5.0411 17.8304 5.03208L17.8089 5.03046C17.7782 4.99951 17.7383 4.95724 17.6872 4.9003C17.5183 4.71227 17.2927 4.43854 16.9638 4.0391C15.8566 2.69437 14.0124 1.875 12 1.875ZM17.8747 5.09206C17.8747 5.09213 17.8735 5.09117 17.8708 5.08899L17.8747 5.09206Z" fill="#E7F9FC"/>
<path d="M12 10L11.3793 9.21595L12 8.72456L12.6207 9.21595L12 10ZM13 17.125C13 17.6773 12.5523 18.125 12 18.125C11.4477 18.125 11 17.6773 11 17.125L13 17.125ZM7.3793 12.3826L11.3793 9.21595L12.6207 10.784L8.6207 13.9507L7.3793 12.3826ZM12.6207 9.21595L16.6207 12.3826L15.3793 13.9507L11.3793 10.784L12.6207 9.21595ZM13 10L13 17.125L11 17.125L11 10L13 10Z" fill="#E7F9FC"/>
</svg>
