<svg width="32" height="32" viewBox="0 0 32 32" fill="none" xmlns="http://www.w3.org/2000/svg">
<rect x="1" y="1" width="30" height="30" rx="15" stroke="#EDEEF1" stroke-width="2"/>
<path fill-rule="evenodd" clip-rule="evenodd" d="M16.5881 8.75696C17.0728 8.27229 17.7301 8 18.4156 8C19.8429 8 21 9.15708 21 10.5844C21 11.2699 20.7277 11.9272 20.243 12.4119L11.8136 20.8413C11.712 20.9429 11.5742 21 11.4306 21H8.54167C8.24251 21 8 20.7575 8 20.4583V17.5694C8 17.4258 8.05707 17.288 8.15865 17.1864L16.5881 8.75696ZM18.4156 9.08333C18.0175 9.08333 17.6357 9.24148 17.3542 9.52299L17.0716 9.80556L19.1944 11.9284L19.477 11.6458C19.7585 11.3643 19.9167 10.9825 19.9167 10.5844C19.9167 9.75539 19.2446 9.08333 18.4156 9.08333ZM18.4284 12.6944L16.3056 10.5716L9.08333 17.7938V19.9167H11.2062L18.4284 12.6944Z" fill="#F1E8F1"/>
<path d="M8 22H24V23H8V22Z" fill="#F1E8F1"/>
</svg>
