<svg width="25" height="20" viewBox="0 0 25 20" fill="none" xmlns="http://www.w3.org/2000/svg">
<path d="M3.5 6.875C3.5 4.98938 3.5 4.04657 4.08579 3.46079C4.67157 2.875 5.61438 2.875 7.5 2.875H17.5C19.3856 2.875 20.3284 2.875 20.9142 3.46079C21.5 4.04657 21.5 4.98938 21.5 6.875V13.125C21.5 15.0106 21.5 15.9534 20.9142 16.5392C20.3284 17.125 19.3856 17.125 17.5 17.125H7.5C5.61438 17.125 4.67157 17.125 4.08579 16.5392C3.5 15.9534 3.5 15.0106 3.5 13.125V6.875Z" stroke="#F1E8F1" stroke-width="1.5"/>
<path d="M3.5 8.41699V8.41699C3.5 8.76534 3.5 8.93952 3.52165 9.08545C3.65091 9.95687 4.33513 10.6411 5.20654 10.7703C5.35247 10.792 5.52665 10.792 5.875 10.792H7.25379C7.81715 10.792 8.09883 10.792 8.32767 10.9212C8.36958 10.9449 8.40972 10.9715 8.44779 11.001C8.65568 11.1617 8.76499 11.4213 8.9836 11.9405L9 11.9795C9.23473 12.537 9.3521 12.8157 9.58214 12.9803C9.60103 12.9938 9.6204 13.0067 9.64019 13.0188C9.88113 13.167 10.1836 13.167 10.7885 13.167H14.2115C14.8164 13.167 15.1189 13.167 15.3598 13.0188C15.3796 13.0067 15.399 12.9938 15.4179 12.9803C15.6479 12.8157 15.7653 12.537 16 11.9795L16.0164 11.9405C16.235 11.4213 16.3443 11.1617 16.5522 11.001C16.5903 10.9715 16.6304 10.9449 16.6723 10.9212C16.9012 10.792 17.1829 10.792 17.7462 10.792H19.125C19.4734 10.792 19.6475 10.792 19.7935 10.7703C20.6649 10.6411 21.3491 9.95687 21.4784 9.08545C21.5 8.93952 21.5 8.76534 21.5 8.41699V8.41699" stroke="#F1E8F1" stroke-width="1.5"/>
</svg>
