<svg width="26" height="25" viewBox="0 0 26 25" fill="none" xmlns="http://www.w3.org/2000/svg">
<path d="M19.6645 1.18408H20.712C22.5033 1.18408 23.399 1.18408 23.9555 1.74058C24.512 2.29708 24.512 3.19274 24.512 4.98408V6.03159M19.6645 21.786H20.712C22.5033 21.786 23.399 21.786 23.9555 21.2295C24.512 20.673 24.512 19.7773 24.512 17.986V16.9385M6.33383 1.18408H5.28633C3.49499 1.18408 2.59932 1.18408 2.04283 1.74058C1.48633 2.29708 1.48633 3.19274 1.48633 4.98408V6.03159M6.33383 21.786H5.28633C3.49499 21.786 2.59932 21.786 2.04283 21.2295C1.48633 20.673 1.48633 19.7773 1.48633 17.986V16.9385" stroke="#F8D2EA" stroke-width="1.2" stroke-linecap="round"/>
<path d="M6.41112 17.9014C6.6562 16.6411 7.44073 15.4689 8.6598 14.6131C9.8803 13.7563 11.4439 13.2836 13.0674 13.2971C14.6908 13.3106 16.2419 13.8092 17.4405 14.6852C18.6375 15.5602 19.393 16.7438 19.6077 18.007" stroke="#F8D2EA" stroke-width="1.2" stroke-linecap="round"/>
<circle cx="12.9989" cy="7.84949" r="3.03563" stroke="#F8D2EA" stroke-width="1.2" stroke-linecap="round"/>
</svg>
